<svg xmlns="http://www.w3.org/2000/svg" xmlns:xlink="http://www.w3.org/1999/xlink" width="300" zoomAndPan="magnify" viewBox="0 0 224.87999 225" height="300" preserveAspectRatio="xMidYMid meet" version="1.0"><defs><g/><clipPath id="4b6fd5e6a4"><path d="M 9 19 L 218.640625 19 L 218.640625 212.195312 L 9 212.195312 Z M 9 19 " clip-rule="nonzero"/></clipPath></defs><g fill="#000000" fill-opacity="1"><g transform="translate(110.300445, 130.225839)"><g><path d="M 5.9375 0 L 5.53125 -1.03125 L 5.484375 -1.03125 C 5.128906 -0.59375 4.765625 -0.285156 4.390625 -0.109375 C 4.023438 0.0546875 3.546875 0.140625 2.953125 0.140625 C 2.210938 0.140625 1.632812 -0.0664062 1.21875 -0.484375 C 0.800781 -0.910156 0.59375 -1.507812 0.59375 -2.28125 C 0.59375 -3.09375 0.875 -3.691406 1.4375 -4.078125 C 2 -4.460938 2.851562 -4.675781 4 -4.71875 L 5.328125 -4.75 L 5.328125 -5.09375 C 5.328125 -5.863281 4.929688 -6.25 4.140625 -6.25 C 3.523438 -6.25 2.804688 -6.0625 1.984375 -5.6875 L 1.296875 -7.09375 C 2.171875 -7.5625 3.144531 -7.796875 4.21875 -7.796875 C 5.238281 -7.796875 6.019531 -7.570312 6.5625 -7.125 C 7.113281 -6.675781 7.390625 -6 7.390625 -5.09375 L 7.390625 0 Z M 5.328125 -3.53125 L 4.515625 -3.515625 C 3.910156 -3.492188 3.457031 -3.378906 3.15625 -3.171875 C 2.863281 -2.972656 2.71875 -2.671875 2.71875 -2.265625 C 2.71875 -1.679688 3.054688 -1.390625 3.734375 -1.390625 C 4.210938 -1.390625 4.597656 -1.523438 4.890625 -1.796875 C 5.179688 -2.078125 5.328125 -2.445312 5.328125 -2.90625 Z M 5.328125 -3.53125 "/></g></g></g><g clip-path="url(#4b6fd5e6a4)"><path fill="#fa3c48" d="M 114.035156 212.1875 C 113.34375 212.1875 112.683594 211.914062 112.195312 211.425781 L 27.632812 126.695312 C -11.488281 87.5 16.246094 20.039062 71.75 20.039062 C 87.605469 20.039062 102.519531 25.871094 114.03125 36.511719 C 153.46875 0.0625 218.640625 27.625 218.640625 82.488281 C 218.640625 99.234375 212.175781 114.933594 200.4375 126.699219 L 115.875 211.425781 C 115.386719 211.914062 114.726562 212.191406 114.035156 212.191406 Z M 114.035156 212.1875 " fill-opacity="1" fill-rule="evenodd"/></g><path fill="#d6e3ff" d="M 25.996094 124.992188 C 24.421875 123.304688 22.976562 121.5625 21.636719 119.785156 L 55.867188 119.785156 L 75.605469 88.800781 C 76.804688 86.90625 79.664062 87.339844 80.289062 89.460938 L 91.238281 126.492188 L 111.289062 95.003906 C 112.492188 93.121094 115.34375 93.539062 115.972656 95.667969 L 121.394531 114.007812 L 133.003906 74.738281 C 133.6875 72.429688 136.847656 72.238281 137.847656 74.371094 L 156.949219 115.109375 L 209.550781 115.109375 C 208.460938 116.898438 207.273438 118.636719 205.996094 120.320312 L 155.300781 120.320312 C 154.292969 120.320312 153.375 119.734375 152.945312 118.824219 L 136.046875 82.785156 L 123.886719 123.921875 C 123.15625 126.394531 119.632812 126.394531 118.902344 123.921875 L 112.605469 102.625 L 92.554688 134.109375 C 92.070312 134.867188 91.242188 135.3125 90.363281 135.3125 C 89.214844 135.3125 88.191406 134.550781 87.867188 133.445312 L 76.921875 96.417969 L 59.484375 123.789062 C 59.007812 124.539062 58.179688 124.996094 57.292969 124.996094 L 25.996094 124.996094 Z M 25.996094 124.992188 " fill-opacity="1" fill-rule="evenodd"/></svg>