<svg xmlns="http://www.w3.org/2000/svg" xmlns:xlink="http://www.w3.org/1999/xlink" width="300" zoomAndPan="magnify" viewBox="0 0 224.87999 225" height="300" preserveAspectRatio="xMidYMid meet" version="1.0"><defs><g/><clipPath id="64f3ec28fd"><path d="M 41 2.433594 L 208 2.433594 L 208 159 L 41 159 Z M 41 2.433594 " clip-rule="nonzero"/></clipPath><clipPath id="97564b3391"><path d="M 32 195 L 61 195 L 61 222.816406 L 32 222.816406 Z M 32 195 " clip-rule="nonzero"/></clipPath></defs><path fill="#e0eef1" d="M 124.527344 27.363281 C 118.808594 27.363281 113.363281 28.585938 108.472656 30.789062 L 88.554688 51.019531 C 86.523438 55.773438 85.386719 60.988281 85.386719 66.480469 C 63.695312 66.480469 46.226562 83.9375 46.226562 105.617188 C 46.226562 113.519531 48.570312 120.835938 52.566406 126.964844 C 50.828125 129.738281 49.914062 132.957031 49.898438 136.226562 C 49.898438 145.921875 57.769531 153.789062 67.46875 153.789062 C 73.878906 153.773438 79.753906 150.277344 82.835938 144.664062 C 83.679688 144.714844 84.523438 144.734375 85.386719 144.734375 L 163.6875 144.734375 C 185.378906 144.734375 202.832031 127.292969 202.832031 105.617188 C 202.832031 93.941406 197.78125 83.507812 189.71875 76.363281 L 181.003906 70.492188 C 179.140625 69.5625 177.195312 68.804688 175.179688 68.183594 L 154.9375 41.84375 C 147.753906 33.011719 136.796875 27.363281 124.527344 27.363281 " fill-opacity="1" fill-rule="nonzero"/><path fill="#cee7eb" d="M 48.792969 172.882812 C 48.792969 179.839844 43.144531 185.46875 36.183594 185.46875 C 29.238281 185.46875 23.589844 179.839844 23.589844 172.882812 C 23.589844 165.929688 29.238281 160.296875 36.183594 160.296875 C 43.144531 160.296875 48.792969 165.929688 48.792969 172.882812 " fill-opacity="1" fill-rule="nonzero"/><path fill="#cee7eb" d="M 55.71875 208.972656 C 55.71875 214.1875 51.5 218.40625 46.277344 218.40625 C 41.074219 218.40625 36.835938 214.1875 36.835938 208.972656 C 36.835938 203.773438 41.074219 199.535156 46.277344 199.535156 C 51.5 199.535156 55.71875 203.773438 55.71875 208.972656 " fill-opacity="1" fill-rule="nonzero"/><path fill="#cee7eb" d="M 124.527344 27.363281 C 121.667969 27.363281 118.878906 27.671875 116.191406 28.242188 C 125.046875 30.152344 132.796875 35.058594 138.3125 41.84375 L 158.554688 68.183594 C 160.570312 68.804688 162.515625 69.5625 164.378906 70.492188 L 173.09375 76.363281 C 181.15625 83.507812 186.207031 93.941406 186.207031 105.617188 C 186.207031 127.292969 168.753906 144.734375 147.0625 144.734375 L 163.6875 144.734375 C 185.378906 144.734375 202.832031 127.292969 202.832031 105.617188 C 202.832031 93.941406 197.78125 83.507812 189.71875 76.363281 L 181.003906 70.492188 C 179.140625 69.5625 177.195312 68.804688 175.179688 68.183594 L 154.9375 41.84375 C 147.753906 33.011719 136.796875 27.363281 124.527344 27.363281 " fill-opacity="1" fill-rule="nonzero"/><path fill="#ad72c0" d="M 97.222656 81.683594 C 92.933594 81.683594 89.453125 85.160156 89.453125 89.449219 C 89.453125 93.734375 92.933594 97.214844 97.222656 97.214844 L 106.613281 97.214844 L 91.640625 112.691406 C 86.867188 117.617188 90.367188 125.863281 97.222656 125.863281 L 124.925781 125.863281 C 129.214844 125.863281 132.695312 122.386719 132.695312 118.097656 C 132.695312 113.8125 129.214844 110.332031 124.925781 110.332031 L 115.535156 110.332031 L 130.523438 94.820312 C 135.277344 89.894531 131.765625 81.683594 124.925781 81.683594 L 97.222656 81.683594 " fill-opacity="1" fill-rule="nonzero"/><path fill="#ad72c0" d="M 154.625 41.84375 C 150.335938 41.84375 146.855469 45.320312 146.855469 49.609375 C 146.855469 53.894531 150.335938 57.371094 154.625 57.371094 L 164.015625 57.371094 L 149.042969 72.851562 C 144.273438 77.777344 147.769531 86.023438 154.625 86.023438 L 182.328125 86.023438 C 186.617188 86.023438 190.097656 82.542969 190.097656 78.257812 C 190.097656 73.96875 186.617188 70.492188 182.328125 70.492188 L 172.941406 70.492188 L 187.929688 54.980469 C 192.683594 50.054688 189.167969 41.84375 182.328125 41.84375 L 154.625 41.84375 " fill-opacity="1" fill-rule="nonzero"/><path fill="#ad72c0" d="M 85.628906 6.839844 C 81.339844 6.839844 77.859375 10.316406 77.859375 14.605469 C 77.859375 18.890625 81.339844 22.371094 85.628906 22.371094 L 95 22.371094 L 80.046875 37.847656 C 75.273438 42.789062 78.769531 51.019531 85.628906 51.019531 L 113.332031 51.019531 C 117.621094 51.019531 121.101562 47.542969 121.101562 43.253906 C 121.101562 38.96875 117.621094 35.488281 113.332031 35.488281 L 103.941406 35.488281 L 118.929688 19.992188 C 123.667969 15.050781 120.171875 6.839844 113.332031 6.839844 L 85.628906 6.839844 " fill-opacity="1" fill-rule="nonzero"/><path fill="#9957b2" d="M 113.675781 81.667969 C 120.53125 81.667969 124.027344 89.894531 119.273438 94.835938 L 104.285156 110.316406 L 113.675781 110.316406 C 117.964844 110.316406 121.445312 113.792969 121.445312 118.082031 C 121.445312 122.386719 117.964844 125.863281 113.675781 125.863281 L 124.925781 125.863281 C 129.214844 125.863281 132.695312 122.386719 132.695312 118.082031 C 132.695312 113.792969 129.214844 110.316406 124.925781 110.316406 L 115.535156 110.316406 L 130.523438 94.835938 C 135.277344 89.894531 131.78125 81.667969 124.925781 81.667969 L 113.675781 81.667969 " fill-opacity="1" fill-rule="nonzero"/><path fill="#9957b2" d="M 171.078125 41.84375 C 177.9375 41.824219 181.433594 50.054688 176.679688 54.980469 L 161.691406 70.492188 L 171.078125 70.492188 C 175.367188 70.492188 178.847656 73.96875 178.847656 78.257812 C 178.847656 82.542969 175.367188 86.023438 171.078125 86.023438 L 182.328125 86.023438 C 186.617188 86.023438 190.097656 82.542969 190.097656 78.257812 C 190.097656 73.96875 186.617188 70.492188 182.328125 70.492188 L 172.941406 70.492188 L 187.929688 54.980469 C 192.683594 50.054688 189.1875 41.824219 182.328125 41.84375 L 171.078125 41.84375 " fill-opacity="1" fill-rule="nonzero"/><path fill="#9957b2" d="M 102.082031 6.839844 C 108.9375 6.839844 112.433594 15.050781 107.679688 19.992188 L 92.691406 35.488281 L 102.082031 35.488281 C 106.371094 35.488281 109.851562 38.96875 109.851562 43.253906 C 109.851562 47.542969 106.371094 51.019531 102.082031 51.019531 L 113.332031 51.019531 C 117.621094 51.019531 121.101562 47.542969 121.101562 43.253906 C 121.101562 38.96875 117.621094 35.488281 113.332031 35.488281 L 103.941406 35.488281 L 118.929688 19.992188 C 123.683594 15.050781 120.1875 6.839844 113.332031 6.839844 L 102.082031 6.839844 " fill-opacity="1" fill-rule="nonzero"/><g clip-path="url(#64f3ec28fd)"><path fill="#1e2643" d="M 83.214844 40.914062 L 98.1875 25.433594 C 99.410156 24.160156 99.753906 22.285156 99.066406 20.648438 C 98.375 19.011719 96.773438 17.960938 95 17.960938 L 85.628906 17.960938 C 83.785156 17.960938 82.269531 16.445312 82.269531 14.605469 C 82.269531 12.761719 83.785156 11.246094 85.628906 11.246094 L 113.332031 11.246094 C 114.191406 11.246094 115.019531 11.574219 115.65625 12.195312 C 116.984375 13.46875 117.035156 15.601562 115.757812 16.929688 L 105.300781 27.742188 C 105.269531 27.792969 105.234375 27.8125 105.199219 27.863281 L 100.769531 32.425781 C 99.546875 33.699219 99.203125 35.59375 99.894531 37.210938 C 100.582031 38.847656 102.183594 39.898438 103.941406 39.898438 L 113.332031 39.898438 C 115.175781 39.898438 116.691406 41.414062 116.691406 43.253906 C 116.691406 45.113281 115.175781 46.613281 113.332031 46.613281 C 111.816406 46.613281 84.230469 46.613281 85.628906 46.613281 C 84.75 46.613281 83.921875 46.285156 83.300781 45.664062 C 82.648438 45.046875 82.285156 44.203125 82.269531 43.304688 C 82.25 42.410156 82.59375 41.566406 83.214844 40.914062 Z M 147.0625 40.136719 C 144.273438 42.359375 142.445312 45.75 142.445312 49.609375 C 142.445312 55.996094 147.390625 61.246094 153.660156 61.746094 L 145.875 69.785156 C 143.617188 72.128906 142.394531 75.210938 142.445312 78.445312 C 142.496094 81.699219 143.824219 84.75 146.148438 87.003906 C 148.441406 89.207031 151.4375 90.429688 154.625 90.429688 L 182.328125 90.429688 C 186.308594 90.429688 189.804688 88.484375 192.027344 85.539062 C 196.128906 91.34375 198.421875 98.351562 198.421875 105.617188 C 198.421875 124.761719 182.828125 140.34375 163.6875 140.34375 L 85.386719 140.34375 C 84.628906 140.34375 83.871094 140.308594 83.113281 140.257812 C 81.371094 140.136719 79.789062 141.050781 78.960938 142.546875 C 76.667969 146.75 72.257812 149.367188 67.46875 149.382812 C 60.214844 149.382812 54.324219 143.476562 54.308594 136.226562 C 54.324219 133.785156 54.996094 131.390625 56.304688 129.289062 C 57.203125 127.84375 57.183594 126 56.253906 124.570312 C 52.585938 118.90625 50.636719 112.363281 50.636719 105.617188 C 50.636719 86.46875 66.230469 70.886719 85.386719 70.886719 C 86.558594 70.886719 87.679688 70.421875 88.503906 69.597656 C 89.332031 68.769531 89.796875 67.652344 89.796875 66.480469 C 89.796875 62.675781 90.417969 58.972656 91.625 55.425781 L 113.332031 55.425781 C 120.050781 55.425781 125.511719 49.96875 125.511719 43.253906 C 125.511719 38.449219 122.703125 34.285156 118.636719 32.304688 C 120.566406 31.976562 122.53125 31.769531 124.527344 31.769531 C 132.902344 31.769531 140.828125 34.785156 147.0625 40.136719 Z M 184.65625 47.179688 C 186 48.472656 186.03125 50.589844 184.757812 51.933594 L 169.769531 67.429688 C 168.546875 68.703125 168.203125 70.578125 168.890625 72.214844 C 169.582031 73.832031 171.183594 74.898438 172.941406 74.898438 L 182.328125 74.898438 C 183.949219 74.898438 185.6875 76.277344 185.6875 78.257812 C 185.6875 80.101562 184.171875 81.613281 182.328125 81.613281 L 154.625 81.613281 C 153.746094 81.613281 152.921875 81.269531 152.285156 80.667969 C 151.644531 80.046875 151.285156 79.203125 151.265625 78.308594 C 151.25 77.414062 151.59375 76.570312 152.214844 75.914062 L 167.1875 60.4375 C 168.410156 59.164062 168.753906 57.269531 168.0625 55.652344 C 167.375 54.015625 165.773438 52.964844 164.015625 52.964844 L 154.625 52.964844 C 152.78125 52.964844 151.265625 51.449219 151.265625 49.609375 C 151.265625 47.75 152.78125 46.25 154.625 46.25 L 182.328125 46.25 C 183.191406 46.25 184.035156 46.578125 184.65625 47.179688 Z M 41.816406 105.617188 C 41.816406 113.191406 43.761719 120.5625 47.484375 127.101562 C 46.175781 129.960938 45.503906 133.078125 45.484375 136.226562 C 45.503906 148.332031 55.359375 158.199219 67.488281 158.199219 C 74.550781 158.179688 81.113281 154.773438 85.195312 149.160156 L 163.6875 149.160156 C 187.703125 149.160156 207.242188 129.617188 207.242188 105.617188 C 207.242188 93.683594 202.3125 82.339844 193.769531 74.160156 C 192.183594 69.753906 188.152344 66.5 183.292969 66.121094 L 191.097656 58.042969 C 195.765625 53.207031 195.613281 45.492188 190.769531 40.828125 C 188.480469 38.640625 185.480469 37.433594 182.328125 37.433594 L 156.882812 37.433594 C 148.613281 28.242188 136.96875 22.957031 124.527344 22.957031 C 123.703125 22.957031 122.890625 23.023438 122.082031 23.074219 L 122.101562 23.042969 C 124.355469 20.699219 125.5625 17.617188 125.511719 14.363281 C 125.441406 11.109375 124.117188 8.078125 121.773438 5.839844 C 119.480469 3.636719 116.484375 2.433594 113.332031 2.433594 L 85.628906 2.433594 C 78.910156 2.433594 73.449219 7.890625 73.449219 14.605469 C 73.449219 20.992188 78.390625 26.242188 84.664062 26.742188 L 76.875 34.800781 C 74.617188 37.125 73.394531 40.207031 73.449219 43.460938 C 73.5 46.714844 74.824219 49.746094 77.167969 52 C 78.683594 53.480469 80.527344 54.445312 82.527344 54.980469 C 81.871094 57.371094 81.40625 59.800781 81.164062 62.28125 C 59.113281 64.414062 41.816406 83.027344 41.816406 105.617188 " fill-opacity="1" fill-rule="nonzero"/></g><path fill="#1e2643" d="M 44.382812 172.882812 C 44.382812 177.394531 40.695312 181.0625 36.183594 181.0625 C 31.667969 181.0625 28 177.394531 28 172.882812 C 28 168.375 31.667969 164.707031 36.183594 164.707031 C 40.695312 164.707031 44.382812 168.375 44.382812 172.882812 Z M 19.179688 172.882812 C 19.179688 182.25 26.8125 189.878906 36.183594 189.878906 C 45.574219 189.878906 53.203125 182.25 53.203125 172.882812 C 53.203125 163.5 45.574219 155.890625 36.183594 155.890625 C 26.8125 155.890625 19.179688 163.5 19.179688 172.882812 " fill-opacity="1" fill-rule="nonzero"/><g clip-path="url(#97564b3391)"><path fill="#1e2643" d="M 41.25 208.972656 C 41.25 206.199219 43.503906 203.945312 46.277344 203.945312 C 49.050781 203.945312 51.308594 206.199219 51.308594 208.972656 C 51.308594 211.742188 49.050781 214 46.277344 214 C 43.503906 214 41.25 211.742188 41.25 208.972656 Z M 60.128906 208.972656 C 60.128906 201.34375 53.929688 195.128906 46.277344 195.128906 C 38.648438 195.128906 32.425781 201.34375 32.425781 208.972656 C 32.425781 216.597656 38.648438 222.816406 46.277344 222.816406 C 53.929688 222.816406 60.128906 216.597656 60.128906 208.972656 " fill-opacity="1" fill-rule="nonzero"/></g><path fill="#1e2643" d="M 128.285156 89.378906 C 128.300781 90.273438 127.957031 91.117188 127.355469 91.773438 L 112.367188 107.269531 C 111.140625 108.542969 110.796875 110.417969 111.488281 112.054688 C 112.175781 113.671875 113.777344 114.742188 115.535156 114.742188 L 124.925781 114.742188 C 126.769531 114.742188 128.285156 116.238281 128.285156 118.097656 C 128.285156 119.941406 126.769531 121.457031 124.925781 121.457031 L 97.222656 121.457031 C 96.34375 121.457031 95.515625 121.113281 94.878906 120.507812 C 93.550781 119.21875 93.519531 117.082031 94.808594 115.757812 L 109.78125 100.277344 C 111.003906 99.003906 111.347656 97.109375 110.660156 95.492188 C 109.972656 93.855469 108.367188 92.804688 106.613281 92.804688 L 97.222656 92.804688 C 95.378906 92.804688 93.863281 91.292969 93.863281 89.449219 C 93.863281 87.589844 95.378906 86.089844 97.222656 86.089844 L 124.925781 86.089844 C 125.785156 86.089844 126.613281 86.417969 127.25 87.019531 C 127.90625 87.640625 128.265625 88.484375 128.285156 89.378906 Z M 97.222656 77.277344 C 90.503906 77.277344 85.042969 82.734375 85.042969 89.449219 C 85.042969 95.835938 89.988281 101.085938 96.257812 101.570312 L 88.46875 109.628906 C 83.800781 114.449219 83.921875 122.179688 88.761719 126.84375 C 91.039062 129.046875 94.050781 130.269531 97.222656 130.269531 L 124.925781 130.269531 C 131.644531 130.269531 137.105469 124.8125 137.105469 118.097656 C 137.105469 111.710938 132.160156 106.460938 125.890625 105.960938 L 133.695312 97.886719 C 135.949219 95.542969 137.15625 92.460938 137.105469 89.207031 C 137.035156 85.953125 135.710938 82.921875 133.367188 80.667969 C 131.074219 78.480469 128.078125 77.277344 124.925781 77.277344 L 97.222656 77.277344 " fill-opacity="1" fill-rule="nonzero"/><g fill="#000000" fill-opacity="1"><g transform="translate(111.836146, 81.237589)"><g><path d="M 0.84375 0 L 0.796875 -0.15625 L 0.78125 -0.15625 C 0.726562 -0.0820312 0.675781 -0.0351562 0.625 -0.015625 C 0.570312 0.00390625 0.503906 0.015625 0.421875 0.015625 C 0.316406 0.015625 0.234375 -0.0078125 0.171875 -0.0625 C 0.109375 -0.125 0.078125 -0.210938 0.078125 -0.328125 C 0.078125 -0.441406 0.117188 -0.523438 0.203125 -0.578125 C 0.285156 -0.640625 0.410156 -0.671875 0.578125 -0.671875 L 0.765625 -0.6875 L 0.765625 -0.734375 C 0.765625 -0.835938 0.707031 -0.890625 0.59375 -0.890625 C 0.507812 -0.890625 0.40625 -0.863281 0.28125 -0.8125 L 0.1875 -1.015625 C 0.3125 -1.078125 0.453125 -1.109375 0.609375 -1.109375 C 0.753906 -1.109375 0.863281 -1.078125 0.9375 -1.015625 C 1.019531 -0.953125 1.0625 -0.859375 1.0625 -0.734375 L 1.0625 0 Z M 0.765625 -0.5 L 0.640625 -0.5 C 0.554688 -0.5 0.492188 -0.484375 0.453125 -0.453125 C 0.410156 -0.421875 0.390625 -0.378906 0.390625 -0.328125 C 0.390625 -0.242188 0.4375 -0.203125 0.53125 -0.203125 C 0.601562 -0.203125 0.660156 -0.21875 0.703125 -0.25 C 0.742188 -0.289062 0.765625 -0.347656 0.765625 -0.421875 Z M 0.765625 -0.5 "/></g></g></g></svg>