<svg xmlns="http://www.w3.org/2000/svg" xmlns:xlink="http://www.w3.org/1999/xlink" width="300" zoomAndPan="magnify" viewBox="0 0 224.87999 225" height="300" preserveAspectRatio="xMidYMid meet" version="1.0"><defs><g/><clipPath id="da804baba2"><path d="M 17.441406 51 L 35 51 L 35 57 L 17.441406 57 Z M 17.441406 51 " clip-rule="nonzero"/></clipPath><clipPath id="821bc47e25"><path d="M 80 4.175781 L 147 4.175781 L 147 220.808594 L 80 220.808594 Z M 80 4.175781 " clip-rule="nonzero"/></clipPath><clipPath id="5cf6532826"><path d="M 142 102 L 211.589844 102 L 211.589844 163 L 142 163 Z M 142 102 " clip-rule="nonzero"/></clipPath></defs><g fill="#000000" fill-opacity="1"><g transform="translate(110.300445, 130.225839)"><g><path d="M 5.9375 0 L 5.53125 -1.03125 L 5.484375 -1.03125 C 5.128906 -0.59375 4.765625 -0.285156 4.390625 -0.109375 C 4.023438 0.0546875 3.546875 0.140625 2.953125 0.140625 C 2.210938 0.140625 1.632812 -0.0664062 1.21875 -0.484375 C 0.800781 -0.910156 0.59375 -1.507812 0.59375 -2.28125 C 0.59375 -3.09375 0.875 -3.691406 1.4375 -4.078125 C 2 -4.460938 2.851562 -4.675781 4 -4.71875 L 5.328125 -4.75 L 5.328125 -5.09375 C 5.328125 -5.863281 4.929688 -6.25 4.140625 -6.25 C 3.523438 -6.25 2.804688 -6.0625 1.984375 -5.6875 L 1.296875 -7.09375 C 2.171875 -7.5625 3.144531 -7.796875 4.21875 -7.796875 C 5.238281 -7.796875 6.019531 -7.570312 6.5625 -7.125 C 7.113281 -6.675781 7.390625 -6 7.390625 -5.09375 L 7.390625 0 Z M 5.328125 -3.53125 L 4.515625 -3.515625 C 3.910156 -3.492188 3.457031 -3.378906 3.15625 -3.171875 C 2.863281 -2.972656 2.71875 -2.671875 2.71875 -2.265625 C 2.71875 -1.679688 3.054688 -1.390625 3.734375 -1.390625 C 4.210938 -1.390625 4.597656 -1.523438 4.890625 -1.796875 C 5.179688 -2.078125 5.328125 -2.445312 5.328125 -2.90625 Z M 5.328125 -3.53125 "/></g></g></g><path fill="#ebc21c" d="M 35.449219 54.132812 C 35.441406 62.875 42.523438 69.960938 51.261719 69.96875 C 60 69.976562 67.089844 62.898438 67.09375 54.160156 C 67.101562 45.417969 60.023438 38.328125 51.285156 38.320312 C 42.546875 38.316406 35.457031 45.394531 35.449219 54.132812 " fill-opacity="1" fill-rule="nonzero"/><path fill="#ebc21c" d="M 53.648438 36.960938 L 48.925781 36.957031 L 48.9375 20.332031 L 53.664062 20.335938 L 53.648438 36.960938 " fill-opacity="1" fill-rule="nonzero"/><path fill="#ebc21c" d="M 53.609375 87.960938 L 48.882812 87.957031 L 48.898438 71.332031 L 53.621094 71.335938 L 53.609375 87.960938 " fill-opacity="1" fill-rule="nonzero"/><path fill="#ebc21c" d="M 44.738281 38.074219 L 40.644531 40.433594 L 32.34375 26.027344 L 36.4375 23.671875 L 44.738281 38.074219 " fill-opacity="1" fill-rule="nonzero"/><path fill="#ebc21c" d="M 70.203125 82.261719 L 66.109375 84.621094 L 57.808594 70.214844 L 61.902344 67.855469 L 70.203125 82.261719 " fill-opacity="1" fill-rule="nonzero"/><path fill="#ebc21c" d="M 37.582031 43.496094 L 35.214844 47.585938 L 20.824219 39.261719 L 23.1875 35.171875 L 37.582031 43.496094 " fill-opacity="1" fill-rule="nonzero"/><path fill="#ebc21c" d="M 81.722656 69.03125 L 79.359375 73.121094 L 64.964844 64.792969 L 67.332031 60.703125 L 81.722656 69.03125 " fill-opacity="1" fill-rule="nonzero"/><g clip-path="url(#da804baba2)"><path fill="#ebc21c" d="M 34.089844 51.769531 L 34.085938 56.496094 L 17.460938 56.480469 L 17.464844 51.757812 L 34.089844 51.769531 " fill-opacity="1" fill-rule="nonzero"/></g><path fill="#ebc21c" d="M 85.085938 51.808594 L 85.082031 56.535156 L 68.457031 56.523438 L 68.460938 51.796875 L 85.085938 51.808594 " fill-opacity="1" fill-rule="nonzero"/><path fill="#ebc21c" d="M 35.203125 60.679688 L 37.5625 64.773438 L 23.160156 73.074219 L 20.800781 68.980469 L 35.203125 60.679688 " fill-opacity="1" fill-rule="nonzero"/><path fill="#ebc21c" d="M 79.390625 35.214844 L 81.746094 39.308594 L 67.339844 47.613281 L 64.984375 43.519531 L 79.390625 35.214844 " fill-opacity="1" fill-rule="nonzero"/><path fill="#ebc21c" d="M 40.625 67.839844 L 44.714844 70.207031 L 36.390625 84.597656 L 32.300781 82.234375 L 40.625 67.839844 " fill-opacity="1" fill-rule="nonzero"/><path fill="#ebc21c" d="M 66.15625 23.695312 L 70.246094 26.058594 L 61.921875 40.453125 L 57.832031 38.085938 L 66.15625 23.695312 " fill-opacity="1" fill-rule="nonzero"/><path fill="#ee2e32" d="M 113.421875 218.542969 C 96.265625 218.542969 82.308594 204.585938 82.308594 187.429688 C 82.308594 181.582031 83.941406 175.878906 87.035156 170.933594 C 89.652344 166.757812 93.273438 163.214844 97.515625 160.683594 L 98.308594 160.210938 L 98.308594 22.40625 C 98.308594 17.917969 99.878906 13.835938 102.726562 10.914062 C 105.519531 8.0625 109.316406 6.492188 113.421875 6.492188 C 117.523438 6.492188 121.320312 8.058594 124.109375 10.914062 C 126.960938 13.835938 128.53125 17.917969 128.53125 22.40625 L 128.53125 160.210938 L 129.324219 160.683594 C 133.5625 163.210938 137.1875 166.753906 139.804688 170.929688 C 142.894531 175.871094 144.53125 181.574219 144.53125 187.429688 C 144.53125 204.585938 130.574219 218.542969 113.421875 218.542969 " fill-opacity="1" fill-rule="nonzero"/><g clip-path="url(#821bc47e25)"><path fill="#ee2e32" d="M 113.421875 220.796875 C 95.023438 220.796875 80.054688 205.828125 80.054688 187.425781 C 80.054688 181.15625 81.808594 175.039062 85.125 169.738281 C 87.867188 165.355469 91.636719 161.632812 96.054688 158.929688 L 96.054688 22.40625 C 96.054688 17.328125 97.851562 12.6875 101.117188 9.339844 C 104.335938 6.046875 108.707031 4.234375 113.421875 4.234375 C 118.136719 4.234375 122.5 6.046875 125.71875 9.335938 C 128.988281 12.683594 130.785156 17.328125 130.785156 22.40625 L 130.785156 158.929688 C 135.199219 161.628906 138.96875 165.351562 141.714844 169.734375 C 145.03125 175.035156 146.785156 181.152344 146.785156 187.425781 C 146.785156 205.828125 131.816406 220.796875 113.421875 220.796875 " fill-opacity="1" fill-rule="nonzero"/></g><path fill="#ffffff" d="M 113.421875 219.507812 C 95.734375 219.507812 81.34375 205.117188 81.34375 187.425781 C 81.34375 181.398438 83.027344 175.519531 86.21875 170.421875 C 88.992188 165.996094 92.828125 162.289062 97.34375 159.664062 L 97.34375 22.40625 C 97.34375 17.664062 99.011719 13.34375 102.039062 10.238281 C 105.011719 7.199219 109.054688 5.527344 113.421875 5.527344 C 117.785156 5.527344 121.828125 7.199219 124.800781 10.238281 C 127.828125 13.34375 129.496094 17.664062 129.496094 22.40625 L 129.496094 159.664062 C 134.011719 162.285156 137.847656 165.992188 140.621094 170.421875 C 143.808594 175.511719 145.496094 181.394531 145.496094 187.425781 C 145.496094 205.117188 131.105469 219.507812 113.421875 219.507812 " fill-opacity="1" fill-rule="nonzero"/><path fill="#51abe4" d="M 144.203125 187.429688 C 144.203125 204.40625 130.394531 218.21875 113.421875 218.21875 C 96.445312 218.21875 82.632812 204.40625 82.632812 187.429688 C 82.632812 181.636719 84.253906 175.992188 87.308594 171.105469 C 90.109375 166.632812 94.023438 162.949219 98.632812 160.417969 L 98.632812 22.40625 C 98.632812 18.003906 100.171875 14 102.960938 11.140625 C 105.6875 8.355469 109.398438 6.816406 113.421875 6.816406 C 117.4375 6.816406 121.152344 8.355469 123.875 11.140625 C 126.664062 14 128.203125 18.003906 128.203125 22.40625 L 128.203125 160.417969 C 132.820312 162.949219 136.726562 166.632812 139.527344 171.105469 C 142.585938 175.988281 144.203125 181.636719 144.203125 187.429688 " fill-opacity="1" fill-rule="nonzero"/><path fill="#ffffff" d="M 113.421875 216.589844 C 97.34375 216.589844 84.261719 203.507812 84.261719 187.429688 C 84.261719 181.949219 85.792969 176.601562 88.6875 171.964844 C 91.332031 167.746094 95.042969 164.246094 99.417969 161.84375 L 100.261719 161.378906 L 100.261719 22.40625 C 100.261719 18.429688 101.632812 14.832031 104.125 12.277344 C 106.546875 9.804688 109.84375 8.445312 113.421875 8.445312 C 116.996094 8.445312 120.292969 9.804688 122.710938 12.277344 C 125.203125 14.832031 126.578125 18.429688 126.578125 22.40625 L 126.578125 161.378906 L 127.421875 161.84375 C 131.792969 164.242188 135.5 167.742188 138.148438 171.96875 C 141.046875 176.597656 142.578125 181.941406 142.578125 187.429688 C 142.578125 203.507812 129.5 216.589844 113.421875 216.589844 " fill-opacity="1" fill-rule="nonzero"/><path fill="#51abe4" d="M 119.40625 166.605469 L 119.40625 38.203125 L 107.433594 38.203125 L 107.433594 166.605469 C 98.234375 169.210938 91.492188 177.671875 91.492188 187.707031 C 91.492188 199.816406 101.308594 209.636719 113.417969 209.636719 C 125.527344 209.636719 135.347656 199.816406 135.347656 187.707031 C 135.347656 177.671875 128.605469 169.210938 119.40625 166.605469 " fill-opacity="1" fill-rule="nonzero"/><path fill="#ee2e32" d="M 113.417969 38.203125 L 107.433594 38.203125 L 107.433594 166.605469 C 98.132812 169.210938 91.398438 177.671875 91.398438 187.707031 C 91.398438 199.769531 101.242188 209.554688 113.417969 209.632812 L 113.417969 38.203125 " fill-opacity="1" fill-rule="nonzero"/><path fill="#9bdae6" d="M 119.40625 115.117188 L 113.417969 115.117188 L 113.417969 38.203125 L 119.40625 38.203125 L 119.40625 115.117188 " fill-opacity="1" fill-rule="nonzero"/><path fill="#ffffff" d="M 115.980469 42.027344 L 111.066406 42.019531 L 111.070312 40.558594 L 115.980469 40.570312 L 115.980469 42.027344 " fill-opacity="1" fill-rule="nonzero"/><path fill="#ffffff" d="M 115.925781 72.835938 L 111.015625 72.828125 L 111.015625 71.367188 L 115.929688 71.378906 L 115.925781 72.835938 " fill-opacity="1" fill-rule="nonzero"/><path fill="#ffffff" d="M 115.875 103.46875 L 110.960938 103.460938 L 110.964844 102 L 115.878906 102.011719 L 115.875 103.46875 " fill-opacity="1" fill-rule="nonzero"/><path fill="#ffffff" d="M 115.824219 133.171875 L 110.910156 133.164062 L 110.910156 131.707031 L 115.828125 131.714844 L 115.824219 133.171875 " fill-opacity="1" fill-rule="nonzero"/><path fill="#ffffff" d="M 115.769531 164.894531 L 110.855469 164.886719 L 110.859375 163.425781 L 115.773438 163.433594 L 115.769531 164.894531 " fill-opacity="1" fill-rule="nonzero"/><path fill="#ffffff" d="M 113.964844 47.453125 L 111.125 47.449219 L 111.128906 46.324219 L 113.964844 46.332031 L 113.964844 47.453125 " fill-opacity="1" fill-rule="nonzero"/><path fill="#ffffff" d="M 113.953125 53.597656 L 111.113281 53.589844 L 111.117188 52.46875 L 113.953125 52.472656 L 113.953125 53.597656 " fill-opacity="1" fill-rule="nonzero"/><path fill="#ffffff" d="M 113.941406 59.738281 L 111.105469 59.734375 L 111.105469 58.609375 L 113.945312 58.617188 L 113.941406 59.738281 " fill-opacity="1" fill-rule="nonzero"/><path fill="#ffffff" d="M 113.929688 65.882812 L 111.09375 65.875 L 111.09375 64.753906 L 113.933594 64.757812 L 113.929688 65.882812 " fill-opacity="1" fill-rule="nonzero"/><path fill="#ffffff" d="M 113.910156 78.167969 L 111.074219 78.160156 L 111.074219 77.039062 L 113.914062 77.042969 L 113.910156 78.167969 " fill-opacity="1" fill-rule="nonzero"/><path fill="#ffffff" d="M 113.902344 84.308594 L 111.0625 84.304688 L 111.066406 83.179688 L 113.902344 83.1875 L 113.902344 84.308594 " fill-opacity="1" fill-rule="nonzero"/><path fill="#ffffff" d="M 113.890625 90.449219 L 111.050781 90.445312 L 111.054688 89.324219 L 113.890625 89.328125 L 113.890625 90.449219 " fill-opacity="1" fill-rule="nonzero"/><path fill="#ffffff" d="M 113.878906 96.59375 L 111.042969 96.589844 L 111.042969 95.464844 L 113.882812 95.46875 L 113.878906 96.59375 " fill-opacity="1" fill-rule="nonzero"/><path fill="#ffffff" d="M 113.859375 109.320312 L 111.019531 109.316406 L 111.023438 108.195312 L 113.859375 108.195312 L 113.859375 109.320312 " fill-opacity="1" fill-rule="nonzero"/><path fill="#ffffff" d="M 113.847656 115.019531 L 111.011719 115.015625 L 111.011719 113.894531 L 113.851562 113.898438 L 113.847656 115.019531 " fill-opacity="1" fill-rule="nonzero"/><path fill="#ffffff" d="M 113.839844 121.164062 L 111 121.160156 L 111.003906 120.035156 L 113.839844 120.039062 L 113.839844 121.164062 " fill-opacity="1" fill-rule="nonzero"/><path fill="#ffffff" d="M 113.828125 127.304688 L 110.988281 127.300781 L 110.992188 126.179688 L 113.828125 126.183594 L 113.828125 127.304688 " fill-opacity="1" fill-rule="nonzero"/><path fill="#ffffff" d="M 113.808594 138.640625 L 110.96875 138.636719 L 110.972656 137.511719 L 113.808594 137.519531 L 113.808594 138.640625 " fill-opacity="1" fill-rule="nonzero"/><path fill="#ffffff" d="M 113.796875 145.566406 L 110.960938 145.5625 L 110.960938 144.441406 L 113.796875 144.445312 L 113.796875 145.566406 " fill-opacity="1" fill-rule="nonzero"/><path fill="#ffffff" d="M 113.785156 151.792969 L 110.949219 151.789062 L 110.949219 150.667969 L 113.789062 150.671875 L 113.785156 151.792969 " fill-opacity="1" fill-rule="nonzero"/><path fill="#ffffff" d="M 113.773438 158.355469 L 110.9375 158.351562 L 110.9375 157.226562 L 113.777344 157.234375 L 113.773438 158.355469 " fill-opacity="1" fill-rule="nonzero"/><g clip-path="url(#5cf6532826)"><path fill="#51abe4" d="M 175.246094 135.390625 C 173.535156 134.433594 172.921875 132.269531 173.875 130.558594 C 174.828125 128.851562 176.996094 128.234375 178.707031 129.191406 C 180.414062 130.144531 181.027344 132.308594 180.074219 134.019531 C 179.117188 135.730469 176.953125 136.34375 175.246094 135.390625 Z M 194.933594 160.609375 L 191.277344 154.484375 L 195.414062 155.527344 C 196.003906 155.675781 196.597656 155.320312 196.75 154.734375 C 196.898438 154.144531 196.539062 153.546875 195.953125 153.398438 L 189.6875 151.816406 L 186.210938 145.992188 L 196.902344 148.691406 C 197.488281 148.839844 198.085938 148.484375 198.234375 147.894531 C 198.382812 147.308594 198.027344 146.710938 197.4375 146.5625 L 184.621094 143.328125 L 180.664062 136.695312 C 181.183594 136.257812 181.640625 135.71875 181.992188 135.089844 C 182.277344 134.578125 182.476562 134.039062 182.59375 133.496094 L 190.574219 133.378906 L 199.675781 142.222656 C 199.746094 142.289062 199.824219 142.347656 199.90625 142.394531 C 200.332031 142.628906 200.875 142.5625 201.226562 142.199219 C 201.648438 141.765625 201.640625 141.070312 201.207031 140.648438 L 193.679688 133.335938 L 200.542969 133.234375 L 205.039062 137.605469 C 205.113281 137.675781 205.191406 137.730469 205.273438 137.777344 C 205.695312 138.011719 206.238281 137.945312 206.589844 137.582031 C 207.015625 137.148438 207.003906 136.453125 206.570312 136.03125 L 203.648438 133.191406 L 210.507812 133.089844 C 211.113281 133.082031 211.601562 132.582031 211.589844 131.976562 C 211.582031 131.371094 211.082031 130.886719 210.476562 130.894531 L 203.347656 131 L 206.320312 127.9375 C 206.742188 127.503906 206.730469 126.808594 206.296875 126.386719 C 205.863281 125.960938 205.167969 125.972656 204.746094 126.410156 L 200.242188 131.042969 L 193.460938 131.140625 L 201.140625 123.234375 C 201.566406 122.796875 201.554688 122.101562 201.121094 121.679688 C 200.683594 121.257812 199.992188 121.269531 199.566406 121.703125 L 190.355469 131.183594 L 182.628906 131.296875 C 182.410156 130.058594 181.789062 128.898438 180.824219 128.027344 L 184.714844 121.058594 L 196.925781 117.59375 C 197.507812 117.429688 197.847656 116.824219 197.683594 116.238281 C 197.519531 115.65625 196.910156 115.316406 196.328125 115.480469 L 186.230469 118.34375 L 189.578125 112.351562 L 195.609375 110.640625 C 196.195312 110.476562 196.53125 109.867188 196.367188 109.285156 C 196.203125 108.703125 195.59375 108.363281 195.011719 108.527344 L 191.089844 109.640625 L 194.433594 103.648438 C 194.730469 103.117188 194.542969 102.449219 194.011719 102.152344 C 193.480469 101.855469 192.816406 102.046875 192.519531 102.578125 L 189.042969 108.804688 L 187.878906 104.699219 C 187.714844 104.117188 187.105469 103.777344 186.523438 103.941406 C 185.941406 104.105469 185.601562 104.714844 185.765625 105.296875 L 187.53125 111.515625 L 184.222656 117.441406 L 181.214844 106.828125 C 181.050781 106.246094 180.441406 105.90625 179.859375 106.074219 C 179.277344 106.238281 178.9375 106.847656 179.105469 107.429688 L 182.710938 120.152344 L 178.945312 126.890625 C 177.71875 126.441406 176.402344 126.441406 175.210938 126.824219 L 171.117188 119.964844 L 174.226562 107.664062 C 174.375 107.074219 174.019531 106.476562 173.429688 106.328125 C 172.84375 106.179688 172.246094 106.539062 172.097656 107.125 L 169.527344 117.300781 L 166.007812 111.40625 L 167.542969 105.324219 C 167.695312 104.738281 167.335938 104.136719 166.75 103.992188 C 166.160156 103.84375 165.5625 104.199219 165.414062 104.785156 L 164.417969 108.738281 L 160.902344 102.84375 C 160.589844 102.324219 159.917969 102.15625 159.398438 102.464844 C 158.875 102.777344 158.707031 103.449219 159.015625 103.96875 L 162.671875 110.097656 L 158.535156 109.050781 C 157.949219 108.902344 157.351562 109.257812 157.203125 109.847656 C 157.078125 110.339844 157.304688 110.835938 157.730469 111.074219 C 157.8125 111.121094 157.902344 111.15625 157.996094 111.179688 L 164.261719 112.761719 L 167.738281 118.585938 L 157.046875 115.886719 C 156.460938 115.738281 155.863281 116.09375 155.714844 116.683594 C 155.589844 117.175781 155.820312 117.675781 156.242188 117.910156 C 156.324219 117.957031 156.414062 117.992188 156.507812 118.015625 L 169.328125 121.253906 L 173.285156 127.882812 C 172.765625 128.324219 172.308594 128.859375 171.957031 129.488281 C 171.671875 130 171.472656 130.539062 171.355469 131.085938 L 163.375 131.199219 L 154.273438 122.355469 C 153.839844 121.933594 153.144531 121.941406 152.722656 122.378906 C 152.296875 122.8125 152.308594 123.511719 152.746094 123.929688 L 160.269531 131.246094 L 153.40625 131.34375 L 148.910156 126.972656 C 148.476562 126.550781 147.777344 126.5625 147.355469 126.996094 C 146.933594 127.429688 146.945312 128.128906 147.378906 128.546875 L 150.300781 131.386719 L 143.441406 131.488281 C 142.835938 131.496094 142.351562 131.996094 142.359375 132.601562 C 142.363281 133.007812 142.59375 133.363281 142.921875 133.546875 C 143.085938 133.636719 143.273438 133.6875 143.472656 133.683594 L 150.601562 133.578125 L 147.628906 136.640625 C 147.207031 137.074219 147.21875 137.773438 147.652344 138.191406 C 147.722656 138.261719 147.800781 138.320312 147.882812 138.367188 C 148.308594 138.601562 148.851562 138.535156 149.203125 138.171875 L 153.707031 133.535156 L 160.492188 133.4375 L 152.808594 141.347656 C 152.382812 141.78125 152.394531 142.476562 152.828125 142.898438 C 152.898438 142.96875 152.976562 143.023438 153.058594 143.070312 C 153.484375 143.308594 154.027344 143.242188 154.382812 142.875 L 163.59375 133.394531 L 171.320312 133.28125 C 171.535156 134.519531 172.160156 135.679688 173.121094 136.550781 L 169.230469 143.523438 L 157.023438 146.984375 C 156.4375 147.148438 156.101562 147.757812 156.265625 148.339844 C 156.429688 148.921875 157.039062 149.261719 157.621094 149.097656 L 167.71875 146.234375 L 164.371094 152.230469 L 158.339844 153.941406 C 157.753906 154.105469 157.417969 154.710938 157.582031 155.292969 C 157.664062 155.585938 157.859375 155.816406 158.101562 155.953125 C 158.347656 156.089844 158.644531 156.136719 158.9375 156.050781 L 162.859375 154.941406 L 159.515625 160.929688 C 159.21875 161.460938 159.40625 162.128906 159.9375 162.425781 C 160.464844 162.722656 161.136719 162.53125 161.429688 162.003906 L 164.90625 155.773438 L 166.070312 159.878906 C 166.238281 160.460938 166.84375 160.800781 167.425781 160.636719 C 168.011719 160.472656 168.347656 159.863281 168.183594 159.28125 L 166.421875 153.0625 L 169.726562 147.140625 L 172.734375 157.75 C 172.816406 158.039062 173.007812 158.269531 173.253906 158.40625 C 173.5 158.542969 173.796875 158.589844 174.089844 158.507812 C 174.671875 158.339844 175.011719 157.734375 174.847656 157.148438 L 171.242188 144.429688 L 175.003906 137.6875 C 176.230469 138.136719 177.546875 138.136719 178.738281 137.753906 L 182.832031 144.613281 L 179.722656 156.917969 C 179.597656 157.410156 179.828125 157.910156 180.25 158.144531 C 180.335938 158.191406 180.425781 158.226562 180.519531 158.25 C 181.105469 158.398438 181.703125 158.042969 181.851562 157.453125 L 184.421875 147.277344 L 187.941406 153.175781 L 186.40625 159.253906 C 186.28125 159.746094 186.507812 160.246094 186.933594 160.484375 C 187.015625 160.527344 187.105469 160.566406 187.199219 160.585938 C 187.789062 160.734375 188.386719 160.378906 188.535156 159.792969 L 189.53125 155.839844 L 193.046875 161.734375 C 193.148438 161.902344 193.289062 162.039062 193.453125 162.128906 C 193.785156 162.3125 194.203125 162.320312 194.550781 162.113281 C 195.074219 161.800781 195.242188 161.128906 194.933594 160.609375 " fill-opacity="1" fill-rule="nonzero"/></g><path fill="#51abe4" d="M 174.464844 120.300781 L 175.964844 122.890625 C 176.066406 123.0625 176.210938 123.203125 176.378906 123.296875 C 176.542969 123.390625 176.734375 123.441406 176.929688 123.4375 C 177.328125 123.433594 177.6875 123.214844 177.878906 122.867188 L 179.449219 119.996094 C 179.589844 119.742188 179.625 119.441406 179.542969 119.160156 L 178.023438 113.957031 C 177.886719 113.484375 177.453125 113.164062 176.964844 113.167969 C 176.472656 113.167969 176.046875 113.492188 175.914062 113.964844 L 174.359375 119.449219 C 174.277344 119.738281 174.316406 120.042969 174.464844 120.300781 " fill-opacity="1" fill-rule="nonzero"/><path fill="#51abe4" d="M 164.546875 128.136719 C 164.625 128.210938 164.707031 128.277344 164.800781 128.332031 C 164.964844 128.417969 165.148438 128.46875 165.335938 128.46875 L 168.332031 128.464844 C 168.726562 128.464844 169.089844 128.25 169.285156 127.902344 C 169.480469 127.554688 169.472656 127.132812 169.265625 126.796875 L 167.566406 123.996094 C 167.417969 123.75 167.171875 123.570312 166.890625 123.5 L 161.625 122.214844 C 161.148438 122.097656 160.652344 122.3125 160.410156 122.734375 C 160.167969 123.160156 160.234375 123.695312 160.574219 124.046875 L 164.546875 128.136719 " fill-opacity="1" fill-rule="nonzero"/><path fill="#51abe4" d="M 160.417969 141.859375 C 160.523438 142.035156 160.664062 142.171875 160.832031 142.265625 C 161.070312 142.398438 161.359375 142.441406 161.636719 142.371094 L 167.164062 140.972656 C 167.453125 140.902344 167.699219 140.714844 167.847656 140.457031 L 169.339844 137.863281 C 169.535156 137.519531 169.535156 137.097656 169.332031 136.753906 C 169.128906 136.414062 168.757812 136.207031 168.363281 136.21875 L 165.089844 136.289062 C 164.800781 136.296875 164.523438 136.417969 164.320312 136.628906 L 160.574219 140.550781 C 160.234375 140.902344 160.171875 141.4375 160.417969 141.859375 " fill-opacity="1" fill-rule="nonzero"/><path fill="#51abe4" d="M 179.484375 144.277344 L 177.984375 141.6875 C 177.785156 141.347656 177.414062 141.136719 177.019531 141.140625 C 176.621094 141.148438 176.261719 141.363281 176.070312 141.710938 L 174.496094 144.582031 C 174.359375 144.839844 174.324219 145.136719 174.40625 145.417969 L 175.925781 150.621094 C 176.011719 150.90625 176.199219 151.136719 176.445312 151.273438 C 176.605469 151.363281 176.792969 151.414062 176.984375 151.414062 C 177.472656 151.410156 177.902344 151.085938 178.039062 150.613281 L 179.589844 145.128906 C 179.671875 144.84375 179.632812 144.535156 179.484375 144.277344 " fill-opacity="1" fill-rule="nonzero"/><path fill="#51abe4" d="M 189.398438 136.445312 C 189.191406 136.230469 188.910156 136.109375 188.609375 136.109375 L 185.621094 136.117188 C 185.222656 136.117188 184.855469 136.332031 184.664062 136.675781 C 184.46875 137.023438 184.476562 137.445312 184.683594 137.785156 L 186.382812 140.582031 C 186.480469 140.746094 186.621094 140.878906 186.785156 140.96875 C 186.871094 141.019531 186.960938 141.054688 187.058594 141.078125 L 192.328125 142.363281 C 192.804688 142.480469 193.296875 142.269531 193.539062 141.84375 C 193.78125 141.417969 193.714844 140.882812 193.375 140.53125 L 189.398438 136.445312 " fill-opacity="1" fill-rule="nonzero"/><path fill="#51abe4" d="M 193.53125 122.71875 C 193.28125 122.296875 192.785156 122.085938 192.3125 122.207031 L 186.785156 123.605469 C 186.496094 123.675781 186.25 123.863281 186.101562 124.121094 L 184.609375 126.714844 C 184.414062 127.058594 184.414062 127.484375 184.617188 127.824219 C 184.71875 127.992188 184.859375 128.128906 185.027344 128.222656 C 185.195312 128.316406 185.386719 128.367188 185.585938 128.359375 L 188.859375 128.289062 C 189.148438 128.28125 189.425781 128.160156 189.628906 127.949219 L 193.375 124.03125 C 193.714844 123.675781 193.777344 123.140625 193.53125 122.71875 " fill-opacity="1" fill-rule="nonzero"/></svg>