<svg xmlns="http://www.w3.org/2000/svg" xmlns:xlink="http://www.w3.org/1999/xlink" width="300" zoomAndPan="magnify" viewBox="0 0 224.87999 225" height="300" preserveAspectRatio="xMidYMid meet" version="1.0"><defs><g/><clipPath id="f0ea537a3f"><path d="M 26.519531 55 L 91 55 L 91 167 L 26.519531 167 Z M 26.519531 55 " clip-rule="nonzero"/></clipPath></defs><path fill="#4275c3" d="M 124.941406 60.128906 C 124.550781 66.585938 126.398438 72.535156 129.207031 78.191406 C 133.324219 86.480469 136.523438 94.949219 135.589844 104.433594 C 135.304688 107.433594 136.757812 108.695312 139.621094 109.257812 C 151.117188 111.496094 162.578125 113.871094 174.027344 116.273438 C 176.546875 116.816406 178.140625 115.988281 178.800781 113.566406 C 185.234375 89.671875 191.414062 65.746094 187.554688 40.625 C 186.46875 33.464844 184.726562 26.480469 181.273438 20.039062 C 171.148438 1.179688 145.835938 0.261719 134.320312 18.34375 C 128.800781 26.984375 127.242188 36.796875 126.09375 46.707031 C 125.566406 51.167969 125.3125 55.660156 124.941406 60.128906 " fill-opacity="1" fill-rule="nonzero"/><g clip-path="url(#f0ea537a3f)"><path fill="#4275c3" d="M 26.488281 108.261719 C 27.488281 126.605469 31.449219 145.207031 36.792969 163.574219 C 37.441406 165.789062 38.808594 166.667969 41.117188 166.210938 C 53.070312 163.792969 65.019531 161.410156 76.972656 159.007812 C 79.390625 158.535156 79.949219 156.859375 79.785156 154.730469 C 79.074219 145.78125 81.351562 137.445312 85.636719 129.800781 C 92.519531 117.507812 90.367188 104.601562 88.824219 91.734375 C 87.996094 84.890625 86.304688 78.183594 83.273438 71.921875 C 78.121094 61.261719 69.691406 55.679688 57.71875 55.453125 C 45.953125 55.238281 38.433594 61.390625 33.566406 71.386719 C 28.023438 82.753906 27.125 95.082031 26.488281 108.261719 " fill-opacity="1" fill-rule="nonzero"/></g><path fill="#4275c3" d="M 126.753906 151.277344 C 126.785156 162.238281 129.511719 166.921875 136.402344 169.558594 C 146.292969 173.363281 156.195312 171.960938 161.835938 165.367188 C 169.625 156.25 171.757812 144.769531 174.144531 133.488281 C 174.515625 131.695312 173.570312 130.394531 171.65625 130.003906 C 159.734375 127.535156 147.816406 125.050781 135.878906 122.617188 C 133.78125 122.191406 132.390625 123.394531 131.917969 125.269531 C 129.582031 134.417969 126.988281 143.535156 126.753906 151.277344 " fill-opacity="1" fill-rule="nonzero"/><path fill="#4275c3" d="M 88.890625 203.398438 C 88.449219 193.878906 86.207031 184.710938 83.671875 175.597656 C 82.96875 173.058594 81.515625 172.199219 79.046875 172.703125 C 67.582031 175.039062 56.113281 177.371094 44.644531 179.722656 C 42.347656 180.195312 40.695312 181.277344 41.347656 184 C 43.492188 192.878906 45.363281 201.824219 49.828125 209.941406 C 56.457031 221.984375 71.761719 225.464844 83.03125 217.46875 C 87.917969 214 88.660156 208.808594 88.890625 203.398438 " fill-opacity="1" fill-rule="nonzero"/><g fill="#000000" fill-opacity="1"><g transform="translate(111.836146, 81.237589)"><g><path d="M 0.84375 0 L 0.796875 -0.15625 L 0.78125 -0.15625 C 0.726562 -0.0820312 0.675781 -0.0351562 0.625 -0.015625 C 0.570312 0.00390625 0.503906 0.015625 0.421875 0.015625 C 0.316406 0.015625 0.234375 -0.0078125 0.171875 -0.0625 C 0.109375 -0.125 0.078125 -0.210938 0.078125 -0.328125 C 0.078125 -0.441406 0.117188 -0.523438 0.203125 -0.578125 C 0.285156 -0.640625 0.410156 -0.671875 0.578125 -0.671875 L 0.765625 -0.6875 L 0.765625 -0.734375 C 0.765625 -0.835938 0.707031 -0.890625 0.59375 -0.890625 C 0.507812 -0.890625 0.40625 -0.863281 0.28125 -0.8125 L 0.1875 -1.015625 C 0.3125 -1.078125 0.453125 -1.109375 0.609375 -1.109375 C 0.753906 -1.109375 0.863281 -1.078125 0.9375 -1.015625 C 1.019531 -0.953125 1.0625 -0.859375 1.0625 -0.734375 L 1.0625 0 Z M 0.765625 -0.5 L 0.640625 -0.5 C 0.554688 -0.5 0.492188 -0.484375 0.453125 -0.453125 C 0.410156 -0.421875 0.390625 -0.378906 0.390625 -0.328125 C 0.390625 -0.242188 0.4375 -0.203125 0.53125 -0.203125 C 0.601562 -0.203125 0.660156 -0.21875 0.703125 -0.25 C 0.742188 -0.289062 0.765625 -0.347656 0.765625 -0.421875 Z M 0.765625 -0.5 "/></g></g></g></svg>