<svg xmlns="http://www.w3.org/2000/svg" xmlns:xlink="http://www.w3.org/1999/xlink" width="300" zoomAndPan="magnify" viewBox="0 0 224.87999 225" height="300" preserveAspectRatio="xMidYMid meet" version="1.0"><defs><g/><clipPath id="bb812461e7"><path d="M 57.007812 85.011719 L 176.191406 85.011719 L 176.191406 172.589844 L 57.007812 172.589844 Z M 57.007812 85.011719 " clip-rule="nonzero"/></clipPath><clipPath id="a01ad49c0a"><path d="M 57.007812 58 L 176.191406 58 L 176.191406 83 L 57.007812 83 Z M 57.007812 58 " clip-rule="nonzero"/></clipPath><clipPath id="7bddd1f9e9"><path d="M 57.007812 82 L 176.191406 82 L 176.191406 170 L 57.007812 170 Z M 57.007812 82 " clip-rule="nonzero"/></clipPath><clipPath id="451878e8de"><path d="M 67 52.703125 L 72 52.703125 L 72 75 L 67 75 Z M 67 52.703125 " clip-rule="nonzero"/></clipPath><clipPath id="9eefde65c2"><path d="M 71 52.703125 L 76 52.703125 L 76 75 L 71 75 Z M 71 52.703125 " clip-rule="nonzero"/></clipPath><clipPath id="e966317a08"><path d="M 110 52.703125 L 116 52.703125 L 116 75 L 110 75 Z M 110 52.703125 " clip-rule="nonzero"/></clipPath><clipPath id="6fe8215f07"><path d="M 115 52.703125 L 120 52.703125 L 120 75 L 115 75 Z M 115 52.703125 " clip-rule="nonzero"/></clipPath><clipPath id="ab5c517bd1"><path d="M 157 52.703125 L 162 52.703125 L 162 75 L 157 75 Z M 157 52.703125 " clip-rule="nonzero"/></clipPath><clipPath id="16142a3184"><path d="M 161 52.703125 L 167 52.703125 L 167 75 L 161 75 Z M 161 52.703125 " clip-rule="nonzero"/></clipPath></defs><g fill="#000000" fill-opacity="1"><g transform="translate(108.211779, 116.997605)"><g><path d="M 5.9375 0 L 5.53125 -1.03125 L 5.484375 -1.03125 C 5.128906 -0.59375 4.765625 -0.285156 4.390625 -0.109375 C 4.023438 0.0546875 3.546875 0.140625 2.953125 0.140625 C 2.210938 0.140625 1.632812 -0.0664062 1.21875 -0.484375 C 0.800781 -0.910156 0.59375 -1.507812 0.59375 -2.28125 C 0.59375 -3.09375 0.875 -3.691406 1.4375 -4.078125 C 2 -4.460938 2.851562 -4.675781 4 -4.71875 L 5.328125 -4.75 L 5.328125 -5.09375 C 5.328125 -5.863281 4.929688 -6.25 4.140625 -6.25 C 3.523438 -6.25 2.804688 -6.0625 1.984375 -5.6875 L 1.296875 -7.09375 C 2.171875 -7.5625 3.144531 -7.796875 4.21875 -7.796875 C 5.238281 -7.796875 6.019531 -7.570312 6.5625 -7.125 C 7.113281 -6.675781 7.390625 -6 7.390625 -5.09375 L 7.390625 0 Z M 5.328125 -3.53125 L 4.515625 -3.515625 C 3.910156 -3.492188 3.457031 -3.378906 3.15625 -3.171875 C 2.863281 -2.972656 2.71875 -2.671875 2.71875 -2.265625 C 2.71875 -1.679688 3.054688 -1.390625 3.734375 -1.390625 C 4.210938 -1.390625 4.597656 -1.523438 4.890625 -1.796875 C 5.179688 -2.078125 5.328125 -2.445312 5.328125 -2.90625 Z M 5.328125 -3.53125 "/></g></g></g><g clip-path="url(#bb812461e7)"><path fill="#cccccc" d="M 57.007812 85.164062 L 57.007812 165.304688 C 57.007812 169.328125 60.257812 172.589844 64.273438 172.589844 L 168.925781 172.589844 C 172.9375 172.589844 176.191406 169.328125 176.191406 165.304688 L 176.191406 85.164062 L 57.007812 85.164062 " fill-opacity="1" fill-rule="nonzero"/></g><g clip-path="url(#a01ad49c0a)"><path fill="#ff4560" d="M 161.660156 76.421875 C 158.445312 76.421875 155.84375 73.8125 155.84375 70.59375 C 155.84375 67.375 158.445312 64.765625 161.660156 64.765625 C 164.867188 64.765625 167.472656 67.375 167.472656 70.59375 C 167.472656 73.8125 164.867188 76.421875 161.660156 76.421875 Z M 115.144531 76.421875 C 111.933594 76.421875 109.332031 73.8125 109.332031 70.59375 C 109.332031 67.375 111.933594 64.765625 115.144531 64.765625 C 118.355469 64.765625 120.960938 67.375 120.960938 70.59375 C 120.960938 73.8125 118.355469 76.421875 115.144531 76.421875 Z M 71.542969 76.421875 C 68.328125 76.421875 65.726562 73.8125 65.726562 70.59375 C 65.726562 67.375 68.328125 64.765625 71.542969 64.765625 C 74.753906 64.765625 77.355469 67.375 77.355469 70.59375 C 77.355469 73.8125 74.753906 76.421875 71.542969 76.421875 Z M 168.925781 58.9375 L 64.273438 58.9375 C 60.257812 58.9375 57.007812 62.199219 57.007812 66.222656 L 57.007812 82.25 L 176.191406 82.25 L 176.191406 66.222656 C 176.191406 62.199219 172.9375 58.9375 168.925781 58.9375 " fill-opacity="1" fill-rule="nonzero"/></g><g clip-path="url(#7bddd1f9e9)"><path fill="#f2f1f6" d="M 57.007812 82.25 L 57.007812 162.390625 C 57.007812 166.414062 60.257812 169.675781 64.273438 169.675781 L 168.925781 169.675781 C 172.9375 169.675781 176.191406 166.414062 176.191406 162.390625 L 176.191406 82.25 L 57.007812 82.25 " fill-opacity="1" fill-rule="nonzero"/></g><path fill="#c63226" d="M 71.542969 76.421875 C 68.328125 76.421875 65.726562 73.8125 65.726562 70.59375 C 65.726562 67.375 68.328125 64.765625 71.542969 64.765625 C 74.753906 64.765625 77.355469 67.375 77.355469 70.59375 C 77.355469 73.8125 74.753906 76.421875 71.542969 76.421875 Z M 71.542969 61.851562 C 66.726562 61.851562 62.820312 65.765625 62.820312 70.59375 C 62.820312 75.421875 66.726562 79.335938 71.542969 79.335938 C 76.355469 79.335938 80.261719 75.421875 80.261719 70.59375 C 80.261719 65.765625 76.355469 61.851562 71.542969 61.851562 " fill-opacity="1" fill-rule="nonzero"/><path fill="#c63226" d="M 115.144531 76.421875 C 111.933594 76.421875 109.332031 73.8125 109.332031 70.59375 C 109.332031 67.375 111.933594 64.765625 115.144531 64.765625 C 118.355469 64.765625 120.960938 67.375 120.960938 70.59375 C 120.960938 73.8125 118.355469 76.421875 115.144531 76.421875 Z M 115.144531 61.851562 C 110.332031 61.851562 106.425781 65.765625 106.425781 70.59375 C 106.425781 75.421875 110.332031 79.335938 115.144531 79.335938 C 119.960938 79.335938 123.867188 75.421875 123.867188 70.59375 C 123.867188 65.765625 119.960938 61.851562 115.144531 61.851562 " fill-opacity="1" fill-rule="nonzero"/><path fill="#c63226" d="M 161.660156 76.421875 C 158.445312 76.421875 155.84375 73.8125 155.84375 70.59375 C 155.84375 67.375 158.445312 64.765625 161.660156 64.765625 C 164.867188 64.765625 167.472656 67.375 167.472656 70.59375 C 167.472656 73.8125 164.867188 76.421875 161.660156 76.421875 Z M 161.660156 61.851562 C 156.839844 61.851562 152.9375 65.765625 152.9375 70.59375 C 152.9375 75.421875 156.839844 79.335938 161.660156 79.335938 C 166.472656 79.335938 170.378906 75.421875 170.378906 70.59375 C 170.378906 65.765625 166.472656 61.851562 161.660156 61.851562 " fill-opacity="1" fill-rule="nonzero"/><g clip-path="url(#451878e8de)"><path fill="#e6e6e6" d="M 67.066406 57.222656 L 67.066406 70.433594 C 67.066406 72.898438 69.0625 74.902344 71.523438 74.902344 L 71.523438 52.753906 C 69.0625 52.753906 67.066406 54.753906 67.066406 57.222656 " fill-opacity="1" fill-rule="nonzero"/></g><g clip-path="url(#9eefde65c2)"><path fill="#f2f2f2" d="M 71.523438 52.753906 L 71.523438 74.902344 C 73.988281 74.902344 75.984375 72.898438 75.984375 70.433594 L 75.984375 57.222656 C 75.984375 54.753906 73.988281 52.753906 71.523438 52.753906 " fill-opacity="1" fill-rule="nonzero"/></g><g clip-path="url(#e966317a08)"><path fill="#e6e6e6" d="M 110.671875 57.222656 L 110.671875 70.433594 C 110.671875 72.898438 112.667969 74.902344 115.128906 74.902344 L 115.128906 52.753906 C 112.667969 52.753906 110.671875 54.753906 110.671875 57.222656 " fill-opacity="1" fill-rule="nonzero"/></g><g clip-path="url(#6fe8215f07)"><path fill="#f2f2f2" d="M 115.128906 52.753906 L 115.128906 74.902344 C 117.59375 74.902344 119.585938 72.898438 119.585938 70.433594 L 119.585938 57.222656 C 119.585938 54.753906 117.59375 52.753906 115.128906 52.753906 " fill-opacity="1" fill-rule="nonzero"/></g><g clip-path="url(#ab5c517bd1)"><path fill="#e6e6e6" d="M 157.183594 57.222656 L 157.183594 70.433594 C 157.183594 72.898438 159.179688 74.902344 161.640625 74.902344 L 161.640625 52.753906 C 159.179688 52.753906 157.183594 54.753906 157.183594 57.222656 " fill-opacity="1" fill-rule="nonzero"/></g><g clip-path="url(#16142a3184)"><path fill="#f2f2f2" d="M 161.640625 52.753906 L 161.640625 74.902344 C 164.105469 74.902344 166.097656 72.898438 166.097656 70.433594 L 166.097656 57.222656 C 166.097656 54.753906 164.105469 52.753906 161.640625 52.753906 " fill-opacity="1" fill-rule="nonzero"/></g><path fill="#cccccc" d="M 82.550781 106.765625 L 66.421875 106.765625 L 66.421875 94.019531 L 82.550781 94.019531 L 82.550781 106.765625 " fill-opacity="1" fill-rule="nonzero"/><path fill="#cccccc" d="M 102.996094 106.765625 L 86.867188 106.765625 L 86.867188 94.019531 L 102.996094 94.019531 L 102.996094 106.765625 " fill-opacity="1" fill-rule="nonzero"/><path fill="#cccccc" d="M 123.445312 106.765625 L 107.3125 106.765625 L 107.3125 94.019531 L 123.445312 94.019531 L 123.445312 106.765625 " fill-opacity="1" fill-rule="nonzero"/><path fill="#cccccc" d="M 143.890625 106.765625 L 127.757812 106.765625 L 127.757812 94.019531 L 143.890625 94.019531 L 143.890625 106.765625 " fill-opacity="1" fill-rule="nonzero"/><path fill="#cccccc" d="M 164.335938 106.765625 L 148.207031 106.765625 L 148.207031 94.019531 L 164.335938 94.019531 L 164.335938 106.765625 " fill-opacity="1" fill-rule="nonzero"/><path fill="#cccccc" d="M 82.550781 122.933594 L 66.421875 122.933594 L 66.421875 110.1875 L 82.550781 110.1875 L 82.550781 122.933594 " fill-opacity="1" fill-rule="nonzero"/><path fill="#cccccc" d="M 102.996094 122.933594 L 86.867188 122.933594 L 86.867188 110.1875 L 102.996094 110.1875 L 102.996094 122.933594 " fill-opacity="1" fill-rule="nonzero"/><path fill="#cccccc" d="M 123.445312 122.933594 L 107.3125 122.933594 L 107.3125 110.1875 L 123.445312 110.1875 L 123.445312 122.933594 " fill-opacity="1" fill-rule="nonzero"/><path fill="#cccccc" d="M 143.890625 122.933594 L 127.757812 122.933594 L 127.757812 110.1875 L 143.890625 110.1875 L 143.890625 122.933594 " fill-opacity="1" fill-rule="nonzero"/><path fill="#cccccc" d="M 164.335938 122.933594 L 148.207031 122.933594 L 148.207031 110.1875 L 164.335938 110.1875 L 164.335938 122.933594 " fill-opacity="1" fill-rule="nonzero"/><path fill="#cccccc" d="M 82.550781 139.101562 L 66.421875 139.101562 L 66.421875 126.355469 L 82.550781 126.355469 L 82.550781 139.101562 " fill-opacity="1" fill-rule="nonzero"/><path fill="#cccccc" d="M 102.996094 139.101562 L 86.867188 139.101562 L 86.867188 126.355469 L 102.996094 126.355469 L 102.996094 139.101562 " fill-opacity="1" fill-rule="nonzero"/><path fill="#cccccc" d="M 123.445312 139.101562 L 107.3125 139.101562 L 107.3125 126.355469 L 123.445312 126.355469 L 123.445312 139.101562 " fill-opacity="1" fill-rule="nonzero"/><path fill="#cccccc" d="M 143.890625 139.101562 L 127.757812 139.101562 L 127.757812 126.355469 L 143.890625 126.355469 L 143.890625 139.101562 " fill-opacity="1" fill-rule="nonzero"/><path fill="#cccccc" d="M 164.335938 139.101562 L 148.207031 139.101562 L 148.207031 126.355469 L 164.335938 126.355469 L 164.335938 139.101562 " fill-opacity="1" fill-rule="nonzero"/><path fill="#cccccc" d="M 82.550781 155.269531 L 66.421875 155.269531 L 66.421875 142.527344 L 82.550781 142.527344 L 82.550781 155.269531 " fill-opacity="1" fill-rule="nonzero"/><path fill="#cccccc" d="M 102.996094 155.269531 L 86.867188 155.269531 L 86.867188 142.527344 L 102.996094 142.527344 L 102.996094 155.269531 " fill-opacity="1" fill-rule="nonzero"/><path fill="#cccccc" d="M 123.445312 155.269531 L 107.3125 155.269531 L 107.3125 142.527344 L 123.445312 142.527344 L 123.445312 155.269531 " fill-opacity="1" fill-rule="nonzero"/><path fill="#cccccc" d="M 143.890625 155.269531 L 127.757812 155.269531 L 127.757812 142.527344 L 143.890625 142.527344 L 143.890625 155.269531 " fill-opacity="1" fill-rule="nonzero"/><path fill="#cccccc" d="M 164.335938 155.269531 L 148.207031 155.269531 L 148.207031 142.527344 L 164.335938 142.527344 L 164.335938 155.269531 " fill-opacity="1" fill-rule="nonzero"/><path fill="#ff4560" d="M 150.183594 106.171875 L 146.3125 102.292969 L 135.234375 113.394531 L 130.625 108.777344 L 126.753906 112.660156 L 133.8125 119.652344 L 135.316406 121.074219 L 150.183594 106.171875 " fill-opacity="1" fill-rule="nonzero"/></svg>