<svg xmlns="http://www.w3.org/2000/svg" xmlns:xlink="http://www.w3.org/1999/xlink" width="300" zoomAndPan="magnify" viewBox="0 0 224.87999 225" height="300" preserveAspectRatio="xMidYMid meet" version="1.0"><defs><g/><clipPath id="0c6ab71196"><path d="M 37.585938 63 L 104 63 L 104 138 L 37.585938 138 Z M 37.585938 63 " clip-rule="nonzero"/></clipPath><clipPath id="1f8d3cf3c7"><path d="M 74 72 L 164 72 L 164 172.566406 L 74 172.566406 Z M 74 72 " clip-rule="nonzero"/></clipPath><clipPath id="8097197127"><path d="M 64 62.375 L 174.015625 62.375 L 174.015625 112 L 64 112 Z M 64 62.375 " clip-rule="nonzero"/></clipPath><clipPath id="17f8d2cb62"><path d="M 88 120 L 116 120 L 116 172.566406 L 88 172.566406 Z M 88 120 " clip-rule="nonzero"/></clipPath></defs><g fill="#000000" fill-opacity="1"><g transform="translate(108.211779, 116.997605)"><g><path d="M 5.9375 0 L 5.53125 -1.03125 L 5.484375 -1.03125 C 5.128906 -0.59375 4.765625 -0.285156 4.390625 -0.109375 C 4.023438 0.0546875 3.546875 0.140625 2.953125 0.140625 C 2.210938 0.140625 1.632812 -0.0664062 1.21875 -0.484375 C 0.800781 -0.910156 0.59375 -1.507812 0.59375 -2.28125 C 0.59375 -3.09375 0.875 -3.691406 1.4375 -4.078125 C 2 -4.460938 2.851562 -4.675781 4 -4.71875 L 5.328125 -4.75 L 5.328125 -5.09375 C 5.328125 -5.863281 4.929688 -6.25 4.140625 -6.25 C 3.523438 -6.25 2.804688 -6.0625 1.984375 -5.6875 L 1.296875 -7.09375 C 2.171875 -7.5625 3.144531 -7.796875 4.21875 -7.796875 C 5.238281 -7.796875 6.019531 -7.570312 6.5625 -7.125 C 7.113281 -6.675781 7.390625 -6 7.390625 -5.09375 L 7.390625 0 Z M 5.328125 -3.53125 L 4.515625 -3.515625 C 3.910156 -3.492188 3.457031 -3.378906 3.15625 -3.171875 C 2.863281 -2.972656 2.71875 -2.671875 2.71875 -2.265625 C 2.71875 -1.679688 3.054688 -1.390625 3.734375 -1.390625 C 4.210938 -1.390625 4.597656 -1.523438 4.890625 -1.796875 C 5.179688 -2.078125 5.328125 -2.445312 5.328125 -2.90625 Z M 5.328125 -3.53125 "/></g></g></g><g clip-path="url(#0c6ab71196)"><path fill="#60811f" d="M 69.578125 136.707031 C 61.605469 138.03125 56.8125 137.503906 55.199219 135.128906 C 54.621094 134.53125 54.21875 133.847656 53.988281 133.078125 L 53.15625 128.347656 L 46.488281 125.351562 C 45.628906 124.816406 44.90625 124.085938 44.320312 123.167969 C 42.734375 120.242188 43.457031 117.136719 46.488281 113.851562 C 40.605469 110.941406 37.636719 107.652344 37.585938 103.984375 C 37.585938 99.589844 40.351562 97.253906 45.882812 96.972656 C 42.070312 91.398438 41.988281 84.011719 45.640625 74.808594 C 48.59375 70.089844 53.199219 71.914062 59.453125 80.285156 C 60.089844 70.785156 62.550781 65.023438 66.839844 63 C 71.683594 63.070312 74.890625 68.074219 76.46875 78.007812 C 81.097656 73.144531 85.972656 73.378906 91.089844 78.722656 C 94.257812 82.445312 94.671875 86.617188 92.324219 91.230469 C 99.15625 94.863281 103.011719 100.152344 103.902344 107.105469 C 104.246094 113.875 100.925781 117.152344 93.9375 116.945312 C 94.742188 123.660156 93.390625 129.246094 89.871094 133.710938 C 87.632812 136.046875 84.433594 135.644531 80.277344 132.503906 C 80.574219 137.507812 77.65625 138.777344 71.527344 136.304688 Z M 69.578125 136.707031 " fill-opacity="1" fill-rule="nonzero"/></g><path fill="#87a540" d="M 62.742188 125.820312 C 60.78125 126.136719 59.019531 125.949219 57.460938 125.257812 C 55.949219 124.464844 55.230469 123.402344 55.304688 122.066406 C 54.164062 122.496094 53.117188 122.445312 52.164062 121.910156 C 51.1875 121.398438 50.613281 120.632812 50.445312 119.609375 C 50.574219 117.222656 51.542969 116.363281 53.34375 117.035156 C 52.484375 116.703125 52.28125 115.800781 52.734375 114.335938 C 53.199219 113.09375 53.933594 112.46875 54.9375 112.457031 C 56.160156 112.476562 57.238281 113.601562 58.171875 115.832031 C 58.238281 115.847656 58.285156 115.839844 58.308594 115.800781 C 58.496094 115.359375 58.796875 114.964844 59.207031 114.613281 C 59.511719 114.34375 59.875 114.152344 60.289062 114.042969 C 61.054688 113.863281 61.738281 114.109375 62.34375 114.785156 C 62.976562 115.554688 63.304688 116.394531 63.335938 117.308594 C 63.183594 118.726562 62.757812 119.734375 62.0625 120.339844 Z M 62.742188 125.820312 " fill-opacity="1" fill-rule="nonzero"/><path fill="#87a540" d="M 62.96875 103.855469 C 60.667969 103.570312 59.253906 102.371094 58.726562 100.25 C 58.410156 97.699219 59.183594 95.945312 61.042969 94.988281 C 59.9375 92.34375 59.550781 90.265625 59.878906 88.757812 C 60.53125 85.613281 62.257812 83.933594 65.054688 83.726562 C 65.21875 81.761719 65.730469 80.34375 66.597656 79.46875 C 67.789062 78.148438 68.992188 77.863281 70.210938 78.609375 C 71.175781 79.070312 71.753906 80.804688 71.945312 83.8125 C 74.644531 83.902344 76.472656 84.644531 77.4375 86.035156 C 78.03125 86.886719 78.390625 87.757812 78.511719 88.652344 C 78.550781 89.160156 78.488281 89.660156 78.320312 90.148438 L 77.21875 91.992188 C 78.140625 93.6875 78.507812 94.851562 78.324219 95.472656 C 78.242188 96.367188 77.722656 97.269531 76.773438 98.183594 C 76.457031 98.566406 75.425781 99.019531 73.679688 99.535156 C 73.632812 101.441406 73.039062 102.667969 71.898438 103.21875 C 70.578125 103.929688 68.929688 103.78125 66.957031 102.777344 C 66.4375 103.46875 66.019531 103.757812 65.695312 103.648438 C 64.882812 103.488281 64.453125 103.050781 64.402344 102.335938 Z M 62.96875 103.855469 " fill-opacity="1" fill-rule="nonzero"/><path fill="#87a540" d="M 72.628906 117.546875 C 71.121094 117.164062 70.214844 116.410156 69.914062 115.28125 C 69.777344 114.75 69.917969 114.125 70.339844 113.398438 C 69.886719 112.726562 69.714844 112.046875 69.816406 111.351562 C 70.007812 110.46875 70.351562 109.824219 70.84375 109.414062 C 71.4375 109.015625 72.214844 109.085938 73.183594 109.625 C 73.847656 108.199219 74.664062 107.542969 75.636719 107.65625 C 75.988281 107.691406 76.332031 107.867188 76.660156 108.183594 L 78.292969 110.199219 C 78.382812 110.25 78.519531 110.277344 78.703125 110.289062 C 79.765625 110.226562 80.398438 110.238281 80.597656 110.324219 C 80.960938 110.402344 81.371094 110.597656 81.832031 110.910156 C 83.667969 112.472656 84.585938 114.617188 84.582031 117.339844 C 84.472656 120.355469 83.46875 122.527344 81.566406 123.851562 C 78.292969 125.996094 74.808594 124.253906 71.113281 118.628906 Z M 72.628906 117.546875 " fill-opacity="1" fill-rule="nonzero"/><path fill="#955f26" d="M 75.550781 169.585938 C 71.015625 169.804688 68.070312 168.75 66.707031 166.425781 C 66.066406 164.917969 65.789062 163.296875 65.871094 161.5625 C 66.636719 153.96875 67.128906 147.027344 67.339844 140.742188 C 67.324219 138.027344 67.011719 135.699219 66.402344 133.765625 C 65.808594 131.378906 64.53125 128.945312 62.570312 126.464844 C 62.363281 125.75 59.472656 123.550781 53.890625 119.867188 C 52.949219 119.097656 52.425781 118.292969 52.320312 117.445312 C 55.8125 116.042969 58.765625 116.480469 61.175781 118.769531 C 61.320312 118.523438 61.246094 118.03125 60.949219 117.292969 C 59.554688 114.597656 58.667969 112.597656 58.289062 111.292969 C 58.066406 110.59375 58.058594 110.238281 58.265625 110.230469 C 59.132812 110.476562 60.042969 111.007812 61 111.828125 C 61.902344 113.058594 62.761719 114.5625 63.578125 116.335938 C 63.792969 116.644531 63.964844 116.652344 64.097656 116.359375 C 64.296875 115.710938 64.308594 114.421875 64.125 112.5 C 64.164062 111.917969 63.566406 108.859375 62.332031 103.316406 C 62.15625 102.265625 62.097656 101.0625 62.148438 99.707031 C 62.535156 95.507812 63.5625 92.367188 65.226562 90.28125 C 65.71875 90.433594 66.039062 91.125 66.1875 92.363281 C 66.265625 92.976562 66.320312 93.835938 66.351562 94.9375 C 66.195312 100.339844 66.203125 103.265625 66.371094 103.707031 C 66.992188 108.75 67.5625 111.730469 68.074219 112.65625 C 68.609375 114.464844 70.03125 114.976562 72.347656 114.1875 C 73.125 119.175781 74.9375 121.394531 77.78125 120.839844 Z M 75.550781 169.585938 " fill-opacity="1" fill-rule="nonzero"/><g clip-path="url(#1f8d3cf3c7)"><path fill="#f8d48a" d="M 74.289062 111.066406 L 74.289062 172.550781 L 163.785156 172.550781 L 163.785156 111.066406 L 117.757812 72.640625 L 74.289062 111.066406 " fill-opacity="1" fill-rule="nonzero"/></g><g clip-path="url(#8097197127)"><path fill="#d15904" d="M 76.847656 111.066406 L 64.058594 111.066406 L 117.757812 62.394531 L 174.015625 111.066406 L 161.230469 111.066406 L 117.757812 75.203125 L 76.847656 111.066406 " fill-opacity="1" fill-rule="nonzero"/></g><path fill="#c95c10" d="M 102.15625 84.589844 L 102.152344 84.597656 C 102.132812 84.621094 102.082031 84.636719 101.992188 84.648438 C 101.90625 84.660156 101.800781 84.667969 101.679688 84.664062 C 101.566406 84.660156 101.476562 84.652344 101.40625 84.636719 C 101.382812 84.628906 101.367188 84.625 101.351562 84.617188 L 101.332031 84.609375 C 101.324219 84.601562 101.320312 84.597656 101.320312 84.589844 C 101.320312 84.566406 101.363281 84.550781 101.441406 84.535156 C 101.519531 84.523438 101.617188 84.515625 101.738281 84.515625 C 101.855469 84.515625 101.957031 84.523438 102.035156 84.535156 C 102.113281 84.550781 102.152344 84.566406 102.15625 84.589844 " fill-opacity="1" fill-rule="nonzero"/><path fill="#b2d8ff" d="M 127.988281 123.875 L 127.988281 144.371094 C 134.804688 144.371094 141.625 144.371094 148.445312 144.371094 C 148.445312 137.539062 148.445312 130.707031 148.445312 123.875 L 127.988281 123.875 " fill-opacity="1" fill-rule="nonzero"/><path fill="#d15904" d="M 128.84375 144.371094 L 127.132812 144.371094 L 127.132812 123.875 C 127.132812 123.648438 127.222656 123.429688 127.382812 123.269531 C 127.542969 123.109375 127.761719 123.019531 127.988281 123.019531 L 148.445312 123.019531 C 148.914062 123.019531 149.296875 123.402344 149.296875 123.875 L 149.296875 144.371094 C 149.296875 144.84375 148.914062 145.226562 148.445312 145.226562 C 147.972656 145.226562 147.589844 144.84375 147.589844 144.371094 L 147.589844 123.875 L 148.445312 124.730469 L 127.988281 124.730469 L 128.84375 123.875 L 128.84375 144.371094 C 128.84375 144.84375 128.460938 145.226562 127.988281 145.226562 C 127.515625 145.226562 127.132812 144.84375 127.132812 144.371094 C 127.132812 143.898438 127.515625 143.511719 127.988281 143.511719 C 128.460938 143.511719 128.84375 143.898438 128.84375 144.371094 Z M 128.84375 144.371094 " fill-opacity="1" fill-rule="nonzero"/><path fill="#86491e" d="M 125.429688 144.371094 L 151 144.371094 C 151 145.222656 151 146.078125 151 146.929688 C 142.476562 146.929688 133.953125 146.929688 125.429688 146.929688 L 125.429688 144.371094 " fill-opacity="1" fill-rule="nonzero"/><path fill="#c95c10" d="M 140.882812 86.460938 L 140.433594 78.046875 L 139.277344 78.097656 L 139.148438 72.121094 L 152.265625 72.136719 L 152.410156 77.800781 L 150.582031 77.878906 L 150.886719 92.898438 L 140.882812 86.460938 " fill-opacity="1" fill-rule="nonzero"/><path fill="#ffffff" d="M 133.738281 137.480469 L 133.742188 137.476562 C 135.390625 135.578125 136.335938 134.507812 136.578125 134.265625 L 136.574219 134.269531 L 142.109375 128.550781 C 142.230469 128.421875 142.433594 128.417969 142.5625 128.542969 C 142.691406 128.664062 142.691406 128.871094 142.570312 128.996094 L 137.035156 134.71875 L 137.03125 134.71875 C 136.804688 134.949219 135.867188 136.011719 134.226562 137.902344 L 134.222656 137.902344 C 134.105469 138.035156 133.902344 138.050781 133.769531 137.933594 C 133.636719 137.816406 133.621094 137.613281 133.738281 137.480469 Z M 133.738281 137.480469 " fill-opacity="0.702" fill-rule="nonzero"/><path fill="#ffffff" d="M 136.066406 139.332031 C 137.726562 137.414062 139.125 135.84375 140.265625 134.621094 C 140.382812 134.492188 140.589844 134.484375 140.71875 134.605469 C 140.847656 134.726562 140.855469 134.929688 140.734375 135.0625 C 139.601562 136.277344 138.207031 137.84375 136.550781 139.753906 C 136.433594 139.890625 136.230469 139.902344 136.097656 139.789062 C 135.964844 139.671875 135.949219 139.46875 136.066406 139.332031 Z M 136.066406 139.332031 " fill-opacity="0.702" fill-rule="nonzero"/><g clip-path="url(#17f8d2cb62)"><path fill="#87491f" d="M 102.382812 120.949219 C 95.085938 120.949219 89.089844 126.785156 88.917969 134.128906 C 88.914062 134.199219 88.914062 134.265625 88.914062 134.335938 L 88.585938 172.550781 L 115.539062 172.550781 L 115.863281 134.566406 C 115.925781 127.203125 110.078125 121.128906 102.707031 120.953125 C 102.597656 120.949219 102.488281 120.949219 102.382812 120.949219 Z M 102.382812 120.949219 " fill-opacity="1" fill-rule="nonzero"/></g><path fill="#d05903" d="M 113.085938 149.675781 L 113.066406 149.984375 C 112.96875 150.609375 112.671875 151.113281 112.175781 151.492188 C 111.675781 151.867188 111.082031 152.027344 110.398438 151.960938 C 109.746094 151.871094 109.222656 151.585938 108.828125 151.109375 C 108.433594 150.632812 108.269531 150.066406 108.335938 149.410156 C 108.433594 148.789062 108.730469 148.285156 109.226562 147.90625 C 109.730469 147.527344 110.320312 147.371094 111.003906 147.4375 C 111.65625 147.527344 112.179688 147.8125 112.574219 148.289062 C 112.703125 148.441406 112.808594 148.609375 112.890625 148.789062 L 112.996094 149.070312 C 113.054688 149.265625 113.082031 149.464844 113.085938 149.675781 " fill-opacity="1" fill-rule="nonzero"/></svg>