<svg xmlns="http://www.w3.org/2000/svg" xmlns:xlink="http://www.w3.org/1999/xlink" width="300" zoomAndPan="magnify" viewBox="0 0 224.87999 225" height="300" preserveAspectRatio="xMidYMid meet" version="1.0"><defs><g/><clipPath id="9206eced7b"><path d="M 72 60 L 171.992188 60 L 171.992188 156 L 72 156 Z M 72 60 " clip-rule="nonzero"/></clipPath><clipPath id="0f29062066"><path d="M 51.308594 75 L 134 75 L 134 177.359375 L 51.308594 177.359375 Z M 51.308594 75 " clip-rule="nonzero"/></clipPath></defs><g fill="#000000" fill-opacity="1"><g transform="translate(108.211779, 116.997605)"><g><path d="M 5.9375 0 L 5.53125 -1.03125 L 5.484375 -1.03125 C 5.128906 -0.59375 4.765625 -0.285156 4.390625 -0.109375 C 4.023438 0.0546875 3.546875 0.140625 2.953125 0.140625 C 2.210938 0.140625 1.632812 -0.0664062 1.21875 -0.484375 C 0.800781 -0.910156 0.59375 -1.507812 0.59375 -2.28125 C 0.59375 -3.09375 0.875 -3.691406 1.4375 -4.078125 C 2 -4.460938 2.851562 -4.675781 4 -4.71875 L 5.328125 -4.75 L 5.328125 -5.09375 C 5.328125 -5.863281 4.929688 -6.25 4.140625 -6.25 C 3.523438 -6.25 2.804688 -6.0625 1.984375 -5.6875 L 1.296875 -7.09375 C 2.171875 -7.5625 3.144531 -7.796875 4.21875 -7.796875 C 5.238281 -7.796875 6.019531 -7.570312 6.5625 -7.125 C 7.113281 -6.675781 7.390625 -6 7.390625 -5.09375 L 7.390625 0 Z M 5.328125 -3.53125 L 4.515625 -3.515625 C 3.910156 -3.492188 3.457031 -3.378906 3.15625 -3.171875 C 2.863281 -2.972656 2.71875 -2.671875 2.71875 -2.265625 C 2.71875 -1.679688 3.054688 -1.390625 3.734375 -1.390625 C 4.210938 -1.390625 4.597656 -1.523438 4.890625 -1.796875 C 5.179688 -2.078125 5.328125 -2.445312 5.328125 -2.90625 Z M 5.328125 -3.53125 "/></g></g></g><g clip-path="url(#9206eced7b)"><path fill="#ffc7a1" d="M 171.421875 80.410156 L 158.308594 151.820312 C 158.253906 152.140625 158.164062 152.457031 158.046875 152.761719 C 157.933594 153.066406 157.785156 153.359375 157.613281 153.636719 C 157.4375 153.914062 157.238281 154.171875 157.011719 154.410156 C 156.785156 154.648438 156.539062 154.863281 156.273438 155.054688 C 156.007812 155.242188 155.722656 155.40625 155.425781 155.539062 C 155.125 155.675781 154.816406 155.78125 154.496094 155.855469 C 154.175781 155.925781 153.851562 155.96875 153.523438 155.980469 C 153.195312 155.992188 152.871094 155.96875 152.546875 155.914062 L 76.738281 142.574219 C 73.921875 142.09375 72.085938 139.289062 72.695312 136.4375 L 88.242188 64.238281 C 88.308594 63.921875 88.402344 63.613281 88.527344 63.3125 C 88.652344 63.011719 88.804688 62.726562 88.984375 62.457031 C 89.164062 62.1875 89.367188 61.933594 89.597656 61.703125 C 89.828125 61.472656 90.078125 61.265625 90.347656 61.085938 C 90.617188 60.902344 90.898438 60.75 91.199219 60.621094 C 91.5 60.496094 91.808594 60.398438 92.125 60.332031 C 92.445312 60.265625 92.765625 60.230469 93.09375 60.226562 C 93.417969 60.222656 93.738281 60.25 94.058594 60.308594 L 167.425781 74.433594 C 167.753906 74.5 168.070312 74.597656 168.378906 74.730469 C 168.683594 74.859375 168.976562 75.015625 169.253906 75.203125 C 169.53125 75.386719 169.785156 75.597656 170.019531 75.835938 C 170.253906 76.070312 170.464844 76.328125 170.652344 76.605469 C 170.835938 76.882812 170.992188 77.171875 171.121094 77.480469 C 171.25 77.789062 171.34375 78.105469 171.410156 78.429688 C 171.476562 78.757812 171.511719 79.085938 171.511719 79.421875 C 171.515625 79.753906 171.484375 80.082031 171.421875 80.410156 Z M 171.421875 80.410156 " fill-opacity="1" fill-rule="nonzero"/></g><path fill="#b74646" d="M 158.132812 99.84375 C 158.082031 99.84375 158.03125 99.839844 157.980469 99.828125 L 97.628906 87.433594 C 97.417969 87.390625 97.253906 87.277344 97.140625 87.097656 C 97.023438 86.917969 96.984375 86.722656 97.027344 86.511719 C 97.066406 86.300781 97.175781 86.136719 97.351562 86.019531 C 97.527344 85.898438 97.722656 85.859375 97.929688 85.898438 L 158.285156 98.292969 C 158.480469 98.335938 158.636719 98.4375 158.753906 98.597656 C 158.875 98.757812 158.921875 98.9375 158.902344 99.136719 C 158.882812 99.335938 158.800781 99.503906 158.652344 99.640625 C 158.507812 99.773438 158.332031 99.84375 158.132812 99.84375 Z M 158.132812 99.84375 " fill-opacity="1" fill-rule="nonzero"/><path fill="#b74646" d="M 154.5625 110.210938 C 154.507812 110.210938 154.457031 110.203125 154.40625 110.195312 L 94.054688 97.800781 C 93.847656 97.753906 93.683594 97.640625 93.566406 97.460938 C 93.449219 97.28125 93.414062 97.085938 93.457031 96.878906 C 93.496094 96.667969 93.601562 96.503906 93.777344 96.382812 C 93.957031 96.265625 94.148438 96.222656 94.359375 96.265625 L 154.707031 108.664062 C 154.917969 108.710938 155.078125 108.820312 155.195312 109 C 155.3125 109.179688 155.351562 109.375 155.308594 109.585938 C 155.273438 109.765625 155.183594 109.914062 155.046875 110.03125 C 154.90625 110.148438 154.742188 110.207031 154.5625 110.210938 Z M 154.5625 110.210938 " fill-opacity="1" fill-rule="nonzero"/><path fill="#b74646" d="M 152.898438 119.191406 C 152.847656 119.191406 152.796875 119.1875 152.746094 119.179688 L 92.394531 106.785156 C 92.183594 106.738281 92.023438 106.625 91.90625 106.445312 C 91.789062 106.265625 91.75 106.070312 91.792969 105.859375 C 91.832031 105.652344 91.941406 105.484375 92.117188 105.367188 C 92.292969 105.246094 92.488281 105.207031 92.695312 105.246094 L 153.050781 117.640625 C 153.257812 117.6875 153.421875 117.800781 153.539062 117.980469 C 153.652344 118.160156 153.691406 118.355469 153.648438 118.5625 C 153.613281 118.746094 153.527344 118.894531 153.386719 119.011719 C 153.246094 119.128906 153.082031 119.191406 152.898438 119.191406 Z M 152.898438 119.191406 " fill-opacity="1" fill-rule="nonzero"/><path fill="#b74646" d="M 150.277344 128.988281 C 150.226562 128.988281 150.175781 128.984375 150.125 128.972656 L 89.773438 116.578125 C 89.5625 116.53125 89.402344 116.417969 89.285156 116.242188 C 89.167969 116.0625 89.128906 115.867188 89.171875 115.65625 C 89.210938 115.445312 89.320312 115.28125 89.496094 115.160156 C 89.671875 115.042969 89.867188 115 90.074219 115.042969 L 150.429688 127.4375 C 150.636719 127.484375 150.800781 127.59375 150.917969 127.773438 C 151.035156 127.957031 151.070312 128.148438 151.027344 128.359375 C 150.992188 128.539062 150.90625 128.691406 150.765625 128.808594 C 150.625 128.925781 150.460938 128.984375 150.277344 128.988281 Z M 150.277344 128.988281 " fill-opacity="1" fill-rule="nonzero"/><path fill="#b74646" d="M 148.226562 139.957031 C 148.175781 139.957031 148.125 139.953125 148.074219 139.945312 L 87.722656 127.550781 C 87.515625 127.503906 87.351562 127.390625 87.234375 127.210938 C 87.117188 127.03125 87.082031 126.835938 87.125 126.625 C 87.164062 126.417969 87.269531 126.253906 87.449219 126.132812 C 87.625 126.011719 87.816406 125.972656 88.027344 126.011719 L 148.378906 138.40625 C 148.585938 138.453125 148.75 138.566406 148.867188 138.746094 C 148.984375 138.925781 149.019531 139.121094 148.976562 139.332031 C 148.945312 139.511719 148.855469 139.660156 148.714844 139.777344 C 148.574219 139.898438 148.410156 139.957031 148.226562 139.957031 Z M 148.226562 139.957031 " fill-opacity="1" fill-rule="nonzero"/><path fill="#b74646" d="M 152.65625 86.792969 C 151.777344 86.792969 150.949219 86.585938 150.167969 86.175781 C 149.390625 85.765625 148.753906 85.199219 148.257812 84.476562 C 147.835938 83.871094 147.546875 83.210938 147.386719 82.492188 C 147.230469 81.777344 147.214844 81.054688 147.339844 80.332031 L 149.222656 69.441406 C 149.382812 68.484375 149.863281 67.726562 150.664062 67.175781 C 151.453125 66.628906 152.316406 66.457031 153.253906 66.660156 C 153.679688 66.757812 154.070312 66.929688 154.429688 67.175781 C 154.789062 67.421875 155.089844 67.722656 155.335938 68.085938 C 155.582031 68.445312 155.75 68.835938 155.847656 69.257812 C 155.945312 69.683594 155.960938 70.109375 155.894531 70.539062 C 155.214844 75.296875 154.808594 78.148438 154.792969 78.371094 C 154.785156 78.507812 154.730469 78.625 154.625 78.71875 C 154.523438 78.8125 154.402344 78.855469 154.261719 78.847656 C 154.125 78.839844 154.011719 78.789062 153.917969 78.6875 C 153.824219 78.589844 153.78125 78.46875 153.78125 78.335938 C 153.78125 78.261719 153.78125 78.140625 154.894531 70.386719 C 154.9375 70.085938 154.929688 69.789062 154.859375 69.492188 C 154.792969 69.195312 154.671875 68.921875 154.503906 68.671875 C 154.332031 68.421875 154.121094 68.210938 153.871094 68.039062 C 153.617188 67.867188 153.34375 67.75 153.050781 67.679688 C 152.394531 67.535156 151.789062 67.65625 151.238281 68.039062 C 150.679688 68.425781 150.347656 68.953125 150.234375 69.621094 L 148.347656 80.511719 C 148.132812 81.734375 148.378906 82.851562 149.089844 83.871094 C 149.421875 84.355469 149.835938 84.753906 150.332031 85.070312 C 150.828125 85.386719 151.367188 85.59375 151.949219 85.6875 C 152.523438 85.78125 153.09375 85.761719 153.660156 85.625 C 154.222656 85.484375 154.738281 85.242188 155.203125 84.894531 C 156.191406 84.164062 156.773438 83.191406 156.953125 81.976562 L 159.097656 68.023438 C 159.222656 67.234375 159.191406 66.449219 159 65.671875 C 158.8125 64.894531 158.480469 64.179688 158.003906 63.535156 C 157.542969 62.894531 156.972656 62.371094 156.292969 61.964844 C 155.613281 61.558594 154.882812 61.300781 154.097656 61.199219 C 153.726562 61.152344 153.351562 61.140625 152.980469 61.167969 C 152.605469 61.191406 152.238281 61.253906 151.875 61.351562 C 151.515625 61.445312 151.164062 61.578125 150.828125 61.738281 C 150.492188 61.902344 150.171875 62.097656 149.875 62.324219 C 149.574219 62.546875 149.296875 62.800781 149.046875 63.078125 C 148.796875 63.355469 148.574219 63.652344 148.382812 63.972656 C 148.1875 64.296875 148.027344 64.632812 147.898438 64.984375 C 147.769531 65.335938 147.675781 65.695312 147.617188 66.0625 L 145.085938 80.6875 C 145.0625 80.828125 144.996094 80.941406 144.878906 81.023438 C 144.765625 81.109375 144.636719 81.136719 144.496094 81.113281 C 144.355469 81.085938 144.246094 81.011719 144.164062 80.894531 C 144.082031 80.777344 144.054688 80.648438 144.078125 80.507812 L 146.613281 65.882812 C 147.238281 62.191406 150.589844 59.675781 154.226562 60.164062 C 155.148438 60.289062 156.007812 60.585938 156.808594 61.066406 C 157.605469 61.542969 158.277344 62.15625 158.820312 62.910156 C 159.378906 63.671875 159.765625 64.507812 159.988281 65.421875 C 160.210938 66.335938 160.25 67.257812 160.101562 68.1875 L 157.960938 82.136719 C 157.851562 82.855469 157.609375 83.523438 157.234375 84.148438 C 156.863281 84.769531 156.382812 85.300781 155.800781 85.730469 C 154.867188 86.433594 153.820312 86.785156 152.65625 86.792969 Z M 152.65625 86.792969 " fill-opacity="1" fill-rule="nonzero"/><g clip-path="url(#0f29062066)"><path fill="#f7ecd5" d="M 131.296875 168.503906 L 65.664062 177.273438 C 65.316406 177.316406 64.972656 177.292969 64.632812 177.195312 C 64.292969 177.101562 63.984375 176.945312 63.707031 176.730469 C 63.429688 176.511719 63.207031 176.25 63.035156 175.941406 C 62.863281 175.636719 62.757812 175.308594 62.71875 174.957031 L 51.527344 87.519531 C 51.476562 87.167969 51.5 86.824219 51.585938 86.480469 C 51.675781 86.140625 51.828125 85.828125 52.039062 85.546875 C 52.25 85.265625 52.507812 85.035156 52.8125 84.851562 C 53.117188 84.671875 53.441406 84.554688 53.792969 84.503906 L 119.425781 75.734375 C 119.777344 75.691406 120.121094 75.71875 120.460938 75.8125 C 120.796875 75.90625 121.105469 76.0625 121.382812 76.28125 C 121.660156 76.496094 121.882812 76.757812 122.054688 77.066406 C 122.226562 77.375 122.332031 77.703125 122.375 78.050781 L 133.558594 165.492188 C 133.605469 165.839844 133.585938 166.183594 133.5 166.527344 C 133.410156 166.867188 133.261719 167.179688 133.046875 167.460938 C 132.835938 167.742188 132.578125 167.976562 132.277344 168.15625 C 131.972656 168.335938 131.644531 168.453125 131.296875 168.503906 Z M 131.296875 168.503906 " fill-opacity="1" fill-rule="nonzero"/></g><path fill="#ffffff" d="M 113.570312 90.761719 L 114.3125 96.582031 C 114.371094 96.984375 114.347656 97.386719 114.246094 97.78125 C 114.140625 98.175781 113.96875 98.539062 113.722656 98.863281 C 113.476562 99.191406 113.175781 99.457031 112.824219 99.667969 C 112.472656 99.875 112.09375 100.007812 111.691406 100.070312 L 67.386719 105.988281 C 66.984375 106.035156 66.585938 106.007812 66.195312 105.898438 C 65.804688 105.785156 65.449219 105.605469 65.128906 105.355469 C 64.808594 105.101562 64.550781 104.800781 64.351562 104.445312 C 64.152344 104.089844 64.03125 103.710938 63.984375 103.308594 L 63.242188 97.488281 C 63.183594 97.085938 63.207031 96.683594 63.308594 96.289062 C 63.414062 95.894531 63.585938 95.535156 63.832031 95.207031 C 64.078125 94.882812 64.375 94.613281 64.726562 94.40625 C 65.078125 94.199219 65.457031 94.066406 65.859375 94.003906 L 110.164062 88.085938 C 110.566406 88.035156 110.964844 88.066406 111.359375 88.175781 C 111.75 88.285156 112.105469 88.464844 112.425781 88.714844 C 112.746094 88.96875 113.003906 89.269531 113.203125 89.625 C 113.402344 89.980469 113.523438 90.359375 113.570312 90.761719 Z M 113.570312 90.761719 " fill-opacity="1" fill-rule="nonzero"/><path fill="#ffc7a1" d="M 80.875 133.117188 L 81.582031 138.644531 C 81.609375 138.863281 81.597656 139.078125 81.542969 139.289062 C 81.484375 139.503906 81.390625 139.699219 81.261719 139.875 C 81.128906 140.050781 80.96875 140.191406 80.777344 140.304688 C 80.589844 140.417969 80.386719 140.492188 80.167969 140.523438 L 71.570312 141.671875 C 71.351562 141.699219 71.136719 141.683594 70.925781 141.625 C 70.714844 141.566406 70.523438 141.46875 70.351562 141.335938 C 70.179688 141.199219 70.039062 141.035156 69.933594 140.847656 C 69.824219 140.65625 69.757812 140.453125 69.734375 140.234375 L 69.011719 134.707031 C 68.984375 134.488281 68.996094 134.273438 69.050781 134.058594 C 69.105469 133.847656 69.199219 133.652344 69.332031 133.476562 C 69.464844 133.300781 69.625 133.15625 69.8125 133.042969 C 70.003906 132.929688 70.207031 132.855469 70.425781 132.820312 L 79.023438 131.671875 C 79.242188 131.644531 79.457031 131.660156 79.671875 131.71875 C 79.882812 131.777344 80.078125 131.871094 80.25 132.007812 C 80.425781 132.144531 80.566406 132.308594 80.675781 132.5 C 80.78125 132.691406 80.847656 132.898438 80.875 133.117188 Z M 80.875 133.117188 " fill-opacity="1" fill-rule="nonzero"/><path fill="#ffc7a1" d="M 82.917969 149.105469 L 83.640625 154.632812 C 83.667969 154.851562 83.65625 155.066406 83.597656 155.277344 C 83.542969 155.492188 83.449219 155.683594 83.316406 155.859375 C 83.183594 156.035156 83.023438 156.179688 82.835938 156.292969 C 82.644531 156.40625 82.441406 156.480469 82.226562 156.511719 L 73.625 157.660156 C 73.410156 157.6875 73.195312 157.671875 72.984375 157.613281 C 72.773438 157.554688 72.582031 157.457031 72.40625 157.324219 C 72.234375 157.1875 72.097656 157.023438 71.988281 156.835938 C 71.882812 156.644531 71.816406 156.441406 71.789062 156.222656 L 71.070312 150.695312 C 71.039062 150.476562 71.050781 150.257812 71.109375 150.046875 C 71.164062 149.832031 71.257812 149.636719 71.390625 149.460938 C 71.523438 149.285156 71.683594 149.140625 71.871094 149.027344 C 72.0625 148.914062 72.265625 148.839844 72.484375 148.808594 L 81.082031 147.660156 C 81.296875 147.632812 81.511719 147.648438 81.726562 147.707031 C 81.9375 147.765625 82.128906 147.863281 82.300781 148 C 82.472656 148.136719 82.613281 148.300781 82.71875 148.492188 C 82.828125 148.683594 82.894531 148.886719 82.917969 149.105469 Z M 82.917969 149.105469 " fill-opacity="1" fill-rule="nonzero"/><path fill="#ffc7a1" d="M 99.105469 130.679688 L 99.8125 136.210938 C 99.839844 136.425781 99.828125 136.640625 99.769531 136.855469 C 99.714844 137.066406 99.621094 137.261719 99.488281 137.4375 C 99.355469 137.613281 99.195312 137.757812 99.007812 137.871094 C 98.820312 137.980469 98.617188 138.054688 98.398438 138.089844 L 89.800781 139.238281 C 89.582031 139.265625 89.367188 139.246094 89.15625 139.1875 C 88.945312 139.128906 88.753906 139.035156 88.582031 138.898438 C 88.410156 138.765625 88.269531 138.601562 88.160156 138.410156 C 88.054688 138.21875 87.988281 138.015625 87.960938 137.796875 L 87.265625 132.265625 C 87.234375 132.046875 87.25 131.832031 87.304688 131.617188 C 87.359375 131.40625 87.453125 131.210938 87.585938 131.035156 C 87.71875 130.859375 87.878906 130.714844 88.066406 130.601562 C 88.253906 130.488281 88.457031 130.414062 88.675781 130.382812 L 97.277344 129.234375 C 97.492188 129.207031 97.707031 129.226562 97.917969 129.285156 C 98.128906 129.34375 98.320312 129.441406 98.492188 129.578125 C 98.664062 129.714844 98.800781 129.878906 98.90625 130.066406 C 99.015625 130.257812 99.078125 130.464844 99.105469 130.679688 Z M 99.105469 130.679688 " fill-opacity="1" fill-rule="nonzero"/><path fill="#ffc7a1" d="M 101.148438 146.667969 L 101.855469 152.195312 C 101.882812 152.414062 101.871094 152.628906 101.816406 152.84375 C 101.761719 153.054688 101.664062 153.25 101.535156 153.425781 C 101.402344 153.601562 101.242188 153.746094 101.054688 153.859375 C 100.863281 153.96875 100.660156 154.042969 100.445312 154.078125 L 91.84375 155.226562 C 91.628906 155.253906 91.414062 155.238281 91.203125 155.179688 C 90.992188 155.121094 90.796875 155.023438 90.625 154.886719 C 90.453125 154.753906 90.3125 154.589844 90.207031 154.398438 C 90.097656 154.207031 90.03125 154.003906 90.007812 153.785156 L 89.300781 148.261719 C 89.273438 148.042969 89.285156 147.828125 89.339844 147.617188 C 89.394531 147.402344 89.488281 147.207031 89.621094 147.03125 C 89.753906 146.855469 89.914062 146.714844 90.101562 146.601562 C 90.292969 146.488281 90.496094 146.414062 90.710938 146.382812 L 99.3125 145.234375 C 99.527344 145.207031 99.742188 145.222656 99.953125 145.28125 C 100.164062 145.339844 100.355469 145.433594 100.527344 145.570312 C 100.699219 145.703125 100.839844 145.867188 100.949219 146.058594 C 101.054688 146.246094 101.125 146.453125 101.148438 146.667969 Z M 101.148438 146.667969 " fill-opacity="1" fill-rule="nonzero"/><path fill="#b74646" d="M 97.058594 114.6875 L 97.765625 120.214844 C 97.796875 120.433594 97.78125 120.648438 97.726562 120.863281 C 97.671875 121.074219 97.578125 121.269531 97.445312 121.445312 C 97.3125 121.625 97.152344 121.769531 96.964844 121.882812 C 96.777344 121.992188 96.574219 122.066406 96.355469 122.101562 L 87.746094 123.25 C 87.527344 123.277344 87.3125 123.257812 87.101562 123.199219 C 86.886719 123.140625 86.695312 123.042969 86.523438 122.90625 C 86.351562 122.769531 86.210938 122.605469 86.105469 122.414062 C 85.996094 122.222656 85.933594 122.015625 85.90625 121.796875 L 85.199219 116.285156 C 85.171875 116.066406 85.183594 115.851562 85.238281 115.640625 C 85.296875 115.425781 85.390625 115.230469 85.519531 115.054688 C 85.652344 114.878906 85.8125 114.734375 86.003906 114.625 C 86.191406 114.511719 86.394531 114.4375 86.613281 114.40625 L 95.210938 113.257812 C 95.429688 113.226562 95.644531 113.242188 95.855469 113.300781 C 96.066406 113.359375 96.261719 113.453125 96.433594 113.589844 C 96.605469 113.722656 96.746094 113.886719 96.855469 114.074219 C 96.964844 114.265625 97.03125 114.46875 97.058594 114.6875 Z M 97.058594 114.6875 " fill-opacity="1" fill-rule="nonzero"/><path fill="#b74646" d="M 119.378906 144.234375 L 120.085938 149.765625 C 120.117188 149.984375 120.101562 150.199219 120.046875 150.410156 C 119.988281 150.625 119.894531 150.820312 119.765625 150.996094 C 119.632812 151.171875 119.472656 151.316406 119.28125 151.425781 C 119.09375 151.539062 118.890625 151.613281 118.671875 151.644531 L 110.066406 152.789062 C 109.847656 152.816406 109.632812 152.800781 109.421875 152.742188 C 109.210938 152.683594 109.019531 152.585938 108.847656 152.453125 C 108.675781 152.316406 108.535156 152.15625 108.425781 151.964844 C 108.320312 151.773438 108.253906 151.570312 108.226562 151.351562 L 107.519531 145.824219 C 107.492188 145.605469 107.503906 145.390625 107.558594 145.179688 C 107.617188 144.964844 107.710938 144.773438 107.84375 144.597656 C 107.972656 144.421875 108.132812 144.277344 108.324219 144.164062 C 108.511719 144.050781 108.714844 143.976562 108.933594 143.945312 L 117.53125 142.796875 C 117.75 142.769531 117.964844 142.785156 118.175781 142.839844 C 118.390625 142.898438 118.582031 142.996094 118.753906 143.128906 C 118.929688 143.265625 119.070312 143.429688 119.175781 143.621094 C 119.285156 143.8125 119.351562 144.015625 119.378906 144.234375 Z M 119.378906 144.234375 " fill-opacity="1" fill-rule="nonzero"/><path fill="#ffc7a1" d="M 117.332031 128.246094 L 118.054688 133.773438 C 118.082031 133.992188 118.070312 134.207031 118.011719 134.417969 C 117.957031 134.632812 117.863281 134.824219 117.730469 135 C 117.597656 135.175781 117.4375 135.320312 117.25 135.433594 C 117.0625 135.546875 116.855469 135.621094 116.640625 135.652344 L 108.042969 136.800781 C 107.824219 136.828125 107.609375 136.8125 107.398438 136.753906 C 107.1875 136.695312 106.996094 136.597656 106.824219 136.464844 C 106.652344 136.328125 106.511719 136.164062 106.40625 135.976562 C 106.296875 135.785156 106.230469 135.578125 106.203125 135.363281 L 105.484375 129.835938 C 105.453125 129.617188 105.46875 129.402344 105.523438 129.1875 C 105.578125 128.976562 105.671875 128.78125 105.804688 128.605469 C 105.9375 128.425781 106.097656 128.28125 106.285156 128.167969 C 106.476562 128.054688 106.679688 127.984375 106.898438 127.949219 L 115.496094 126.800781 C 115.710938 126.773438 115.925781 126.792969 116.140625 126.851562 C 116.351562 126.910156 116.542969 127.007812 116.714844 127.140625 C 116.886719 127.277344 117.027344 127.441406 117.132812 127.632812 C 117.242188 127.824219 117.308594 128.027344 117.332031 128.246094 Z M 117.332031 128.246094 " fill-opacity="1" fill-rule="nonzero"/><path fill="#ffc7a1" d="M 78.828125 117.125 L 79.535156 122.652344 C 79.566406 122.871094 79.550781 123.085938 79.496094 123.296875 C 79.441406 123.511719 79.347656 123.707031 79.214844 123.882812 C 79.082031 124.058594 78.921875 124.203125 78.734375 124.316406 C 78.542969 124.429688 78.339844 124.503906 78.125 124.535156 L 69.523438 125.683594 C 69.304688 125.710938 69.089844 125.695312 68.878906 125.636719 C 68.667969 125.578125 68.476562 125.476562 68.300781 125.34375 C 68.128906 125.207031 67.988281 125.042969 67.882812 124.851562 C 67.777344 124.65625 67.710938 124.453125 67.6875 124.234375 L 66.980469 118.707031 C 66.953125 118.492188 66.964844 118.273438 67.019531 118.0625 C 67.074219 117.851562 67.167969 117.65625 67.300781 117.480469 C 67.433594 117.304688 67.59375 117.160156 67.78125 117.046875 C 67.972656 116.933594 68.175781 116.863281 68.390625 116.828125 L 76.992188 115.679688 C 77.207031 115.652344 77.421875 115.667969 77.632812 115.730469 C 77.847656 115.789062 78.039062 115.882812 78.210938 116.019531 C 78.382812 116.15625 78.523438 116.320312 78.628906 116.511719 C 78.738281 116.703125 78.804688 116.90625 78.828125 117.125 Z M 78.828125 117.125 " fill-opacity="1" fill-rule="nonzero"/><path fill="#b74646" d="M 115.289062 112.253906 L 115.996094 117.78125 C 116.027344 118 116.011719 118.214844 115.957031 118.425781 C 115.902344 118.640625 115.808594 118.835938 115.675781 119.011719 C 115.542969 119.1875 115.382812 119.332031 115.195312 119.445312 C 115.003906 119.558594 114.800781 119.632812 114.582031 119.664062 L 105.984375 120.8125 C 105.769531 120.839844 105.554688 120.824219 105.34375 120.765625 C 105.132812 120.707031 104.941406 120.609375 104.769531 120.472656 C 104.597656 120.339844 104.457031 120.175781 104.347656 119.984375 C 104.242188 119.796875 104.175781 119.59375 104.148438 119.375 L 103.425781 113.847656 C 103.398438 113.628906 103.414062 113.414062 103.46875 113.203125 C 103.523438 112.988281 103.617188 112.796875 103.75 112.621094 C 103.882812 112.445312 104.042969 112.300781 104.230469 112.1875 C 104.421875 112.074219 104.625 112.003906 104.839844 111.96875 L 113.4375 110.820312 C 113.65625 110.792969 113.871094 110.808594 114.082031 110.863281 C 114.296875 110.921875 114.488281 111.015625 114.660156 111.152344 C 114.835938 111.285156 114.976562 111.449219 115.085938 111.640625 C 115.195312 111.828125 115.261719 112.035156 115.289062 112.253906 Z M 115.289062 112.253906 " fill-opacity="1" fill-rule="nonzero"/></svg>