<svg xmlns="http://www.w3.org/2000/svg" xmlns:xlink="http://www.w3.org/1999/xlink" width="300" zoomAndPan="magnify" viewBox="0 0 224.87999 225" height="300" preserveAspectRatio="xMidYMid meet" version="1.0"><defs><g/></defs><g fill="#000000" fill-opacity="1"><g transform="translate(108.211779, 116.997605)"><g><path d="M 5.9375 0 L 5.53125 -1.03125 L 5.484375 -1.03125 C 5.128906 -0.59375 4.765625 -0.285156 4.390625 -0.109375 C 4.023438 0.0546875 3.546875 0.140625 2.953125 0.140625 C 2.210938 0.140625 1.632812 -0.0664062 1.21875 -0.484375 C 0.800781 -0.910156 0.59375 -1.507812 0.59375 -2.28125 C 0.59375 -3.09375 0.875 -3.691406 1.4375 -4.078125 C 2 -4.460938 2.851562 -4.675781 4 -4.71875 L 5.328125 -4.75 L 5.328125 -5.09375 C 5.328125 -5.863281 4.929688 -6.25 4.140625 -6.25 C 3.523438 -6.25 2.804688 -6.0625 1.984375 -5.6875 L 1.296875 -7.09375 C 2.171875 -7.5625 3.144531 -7.796875 4.21875 -7.796875 C 5.238281 -7.796875 6.019531 -7.570312 6.5625 -7.125 C 7.113281 -6.675781 7.390625 -6 7.390625 -5.09375 L 7.390625 0 Z M 5.328125 -3.53125 L 4.515625 -3.515625 C 3.910156 -3.492188 3.457031 -3.378906 3.15625 -3.171875 C 2.863281 -2.972656 2.71875 -2.671875 2.71875 -2.265625 C 2.71875 -1.679688 3.054688 -1.390625 3.734375 -1.390625 C 4.210938 -1.390625 4.597656 -1.523438 4.890625 -1.796875 C 5.179688 -2.078125 5.328125 -2.445312 5.328125 -2.90625 Z M 5.328125 -3.53125 "/></g></g></g><path fill="#e91e63" d="M 66.707031 117.941406 C 55.277344 129.371094 55.019531 147.648438 66.136719 158.765625 C 77.25 169.875 95.523438 169.617188 106.953125 158.191406 L 132.539062 132.601562 L 92.296875 92.355469 Z M 66.707031 117.941406 " fill-opacity="1" fill-rule="nonzero"/><path fill="#00bcd4" d="M 158.703125 66.195312 C 147.585938 55.078125 129.316406 55.332031 117.882812 66.769531 L 92.296875 92.355469 L 132.539062 132.597656 L 158.125 107.011719 C 169.558594 95.582031 169.8125 77.308594 158.703125 66.195312 Z M 158.703125 66.195312 " fill-opacity="1" fill-rule="nonzero"/><path fill="#00838f" d="M 132.542969 132.601562 L 92.296875 92.355469 L 96.320312 88.332031 L 136.566406 128.578125 Z M 132.542969 132.601562 " fill-opacity="1" fill-rule="nonzero"/><path fill="#fce4ec" d="M 97.78125 97.84375 L 71.621094 124 C 71.621094 124 56.988281 138.636719 71.621094 153.269531 C 72.894531 154.539062 74.3125 155.578125 75.816406 156.394531 C 64.304688 145.957031 78.941406 131.320312 78.941406 131.320312 L 105.097656 105.160156 Z M 97.78125 97.84375 " fill-opacity="1" fill-rule="nonzero"/><path fill="#e0f7fa" d="M 133.089844 77.167969 C 133.089844 77.167969 145.898438 64.367188 156.871094 75.339844 C 156.054688 73.835938 155.023438 72.414062 153.75 71.140625 C 138.574219 57.042969 125.769531 69.851562 125.769531 69.851562 L 97.78125 97.84375 L 105.097656 105.160156 Z M 133.089844 77.167969 " fill-opacity="1" fill-rule="nonzero"/><path fill="#80deea" d="M 105.101562 105.15625 L 97.785156 97.839844 L 101.808594 93.816406 L 109.125 101.132812 Z M 105.101562 105.15625 " fill-opacity="1" fill-rule="nonzero"/></svg>