<svg xmlns="http://www.w3.org/2000/svg" xmlns:xlink="http://www.w3.org/1999/xlink" width="300" zoomAndPan="magnify" viewBox="0 0 224.87999 225" height="300" preserveAspectRatio="xMidYMid meet" version="1.0"><defs><g/><clipPath id="ed1dab8cb1"><path d="M 31.097656 28.535156 L 193.761719 28.535156 L 193.761719 196.445312 L 31.097656 196.445312 Z M 31.097656 28.535156 " clip-rule="nonzero"/></clipPath></defs><g fill="#000000" fill-opacity="1"><g transform="translate(110.300445, 130.225839)"><g><path d="M 5.9375 0 L 5.53125 -1.03125 L 5.484375 -1.03125 C 5.128906 -0.59375 4.765625 -0.285156 4.390625 -0.109375 C 4.023438 0.0546875 3.546875 0.140625 2.953125 0.140625 C 2.210938 0.140625 1.632812 -0.0664062 1.21875 -0.484375 C 0.800781 -0.910156 0.59375 -1.507812 0.59375 -2.28125 C 0.59375 -3.09375 0.875 -3.691406 1.4375 -4.078125 C 2 -4.460938 2.851562 -4.675781 4 -4.71875 L 5.328125 -4.75 L 5.328125 -5.09375 C 5.328125 -5.863281 4.929688 -6.25 4.140625 -6.25 C 3.523438 -6.25 2.804688 -6.0625 1.984375 -5.6875 L 1.296875 -7.09375 C 2.171875 -7.5625 3.144531 -7.796875 4.21875 -7.796875 C 5.238281 -7.796875 6.019531 -7.570312 6.5625 -7.125 C 7.113281 -6.675781 7.390625 -6 7.390625 -5.09375 L 7.390625 0 Z M 5.328125 -3.53125 L 4.515625 -3.515625 C 3.910156 -3.492188 3.457031 -3.378906 3.15625 -3.171875 C 2.863281 -2.972656 2.71875 -2.671875 2.71875 -2.265625 C 2.71875 -1.679688 3.054688 -1.390625 3.734375 -1.390625 C 4.210938 -1.390625 4.597656 -1.523438 4.890625 -1.796875 C 5.179688 -2.078125 5.328125 -2.445312 5.328125 -2.90625 Z M 5.328125 -3.53125 "/></g></g></g><path fill="#ef6a6a" d="M 185.554688 104.367188 L 174.71875 104.367188 C 174.71875 69.972656 146.824219 42.078125 112.429688 42.078125 C 78.035156 42.078125 50.140625 69.972656 50.140625 104.367188 L 39.308594 104.367188 C 39.308594 63.984375 72.050781 31.242188 112.429688 31.242188 C 152.8125 31.242188 185.554688 63.984375 185.554688 104.367188 Z M 185.554688 104.367188 " fill-opacity="1" fill-rule="nonzero"/><path fill="#f9ca48" d="M 174.71875 104.367188 L 163.886719 104.367188 C 163.886719 75.957031 140.839844 52.910156 112.429688 52.910156 C 84.023438 52.910156 60.976562 75.957031 60.976562 104.367188 L 50.140625 104.367188 C 50.140625 69.972656 78.035156 42.078125 112.429688 42.078125 C 146.824219 42.078125 174.71875 69.972656 174.71875 104.367188 Z M 174.71875 104.367188 " fill-opacity="1" fill-rule="nonzero"/><path fill="#66becc" d="M 163.886719 104.367188 L 153.054688 104.367188 C 153.054688 81.941406 134.855469 63.742188 112.429688 63.742188 C 90.007812 63.742188 71.808594 81.941406 71.808594 104.367188 L 60.976562 104.367188 C 60.976562 75.957031 84.023438 52.910156 112.429688 52.910156 C 140.839844 52.910156 163.886719 75.957031 163.886719 104.367188 Z M 163.886719 104.367188 " fill-opacity="1" fill-rule="nonzero"/><path fill="#f7b0aa" d="M 169.304688 104.367188 L 169.304688 129.121094 C 169.304688 160.328125 147.125 187.128906 116.46875 192.96875 L 112.429688 193.738281 L 108.394531 192.96875 C 77.738281 187.128906 55.558594 160.328125 55.558594 129.121094 L 55.558594 104.367188 Z M 169.304688 104.367188 " fill-opacity="1" fill-rule="nonzero"/><path fill="#f4e5df" d="M 69.097656 96.242188 C 67.757812 96.242188 66.511719 96.597656 65.394531 97.171875 C 63.6875 93.4375 59.9375 90.824219 55.558594 90.824219 C 51.179688 90.824219 47.429688 93.4375 45.722656 97.171875 C 44.605469 96.597656 43.359375 96.242188 42.015625 96.242188 C 37.53125 96.242188 33.890625 99.878906 33.890625 104.367188 C 33.890625 108.855469 37.53125 112.492188 42.015625 112.492188 C 44.511719 112.492188 46.714844 111.34375 48.207031 109.570312 C 50.140625 111.371094 52.710938 112.492188 55.558594 112.492188 C 58.40625 112.492188 60.976562 111.371094 62.910156 109.570312 C 64.402344 111.34375 66.605469 112.492188 69.097656 112.492188 C 73.585938 112.492188 77.222656 108.855469 77.222656 104.367188 C 77.222656 99.878906 73.585938 96.242188 69.097656 96.242188 Z M 69.097656 96.242188 " fill-opacity="1" fill-rule="nonzero"/><path fill="#f4e5df" d="M 182.84375 96.242188 C 181.5 96.242188 180.253906 96.597656 179.140625 97.171875 C 177.433594 93.4375 173.683594 90.824219 169.304688 90.824219 C 164.925781 90.824219 161.171875 93.4375 159.46875 97.171875 C 158.351562 96.597656 157.105469 96.242188 155.761719 96.242188 C 151.273438 96.242188 147.636719 99.878906 147.636719 104.367188 C 147.636719 108.855469 151.273438 112.492188 155.761719 112.492188 C 158.257812 112.492188 160.460938 111.34375 161.949219 109.570312 C 163.882812 111.371094 166.457031 112.492188 169.304688 112.492188 C 172.148438 112.492188 174.722656 111.371094 176.65625 109.570312 C 178.144531 111.34375 180.351562 112.492188 182.84375 112.492188 C 187.332031 112.492188 190.96875 108.855469 190.96875 104.367188 C 190.96875 99.878906 187.332031 96.242188 182.84375 96.242188 Z M 182.84375 96.242188 " fill-opacity="1" fill-rule="nonzero"/><g clip-path="url(#ed1dab8cb1)"><path fill="#292233" d="M 187.628906 94.699219 C 182.835938 56.867188 150.796875 28.535156 112.429688 28.535156 C 74.0625 28.535156 42.027344 56.867188 37.230469 94.699219 C 33.664062 96.472656 31.183594 100.117188 31.183594 104.367188 C 31.183594 110.339844 36.042969 115.199219 42.015625 115.199219 C 44.320312 115.199219 46.535156 114.457031 48.371094 113.109375 C 49.742188 113.976562 51.269531 114.535156 52.851562 114.847656 L 52.851562 129.121094 C 52.851562 161.582031 75.996094 189.554688 107.886719 195.628906 L 111.921875 196.398438 C 112.09375 196.429688 112.261719 196.445312 112.429688 196.445312 C 112.597656 196.445312 112.769531 196.429688 112.9375 196.398438 L 116.972656 195.628906 C 148.863281 189.554688 172.011719 161.582031 172.011719 129.121094 L 172.011719 114.847656 C 173.589844 114.535156 175.121094 113.976562 176.492188 113.109375 C 178.328125 114.457031 180.542969 115.199219 182.84375 115.199219 C 188.820312 115.199219 193.679688 110.339844 193.679688 104.367188 C 193.679688 100.117188 191.195312 96.472656 187.628906 94.699219 Z M 112.429688 33.953125 C 147.449219 33.953125 176.808594 59.359375 182.027344 93.582031 C 181.457031 93.628906 180.890625 93.699219 180.332031 93.84375 C 179.117188 92.128906 177.523438 90.738281 175.707031 89.753906 C 168.996094 60.484375 142.632812 39.367188 112.429688 39.367188 C 82.230469 39.367188 55.863281 60.484375 49.15625 89.753906 C 47.339844 90.742188 45.742188 92.128906 44.53125 93.84375 C 43.972656 93.699219 43.402344 93.628906 42.835938 93.582031 C 48.054688 59.359375 77.410156 33.953125 112.429688 33.953125 Z M 145.3125 101.65625 L 79.546875 101.65625 C 78.921875 99.246094 77.496094 97.171875 75.554688 95.71875 C 79.53125 78.664062 94.738281 66.449219 112.429688 66.449219 C 130.125 66.449219 145.332031 78.664062 149.304688 95.71875 C 147.367188 97.171875 145.941406 99.246094 145.3125 101.65625 Z M 154.390625 93.671875 C 149.554688 74.601562 132.371094 61.035156 112.429688 61.035156 C 92.492188 61.035156 75.304688 74.601562 70.472656 93.671875 C 70.015625 93.613281 69.570312 93.53125 69.097656 93.53125 C 68.25 93.53125 67.414062 93.636719 66.585938 93.84375 C 66.183594 93.277344 65.734375 92.761719 65.257812 92.269531 C 70.695312 70.953125 90.265625 55.617188 112.429688 55.617188 C 134.59375 55.617188 154.167969 70.953125 159.601562 92.269531 C 159.125 92.765625 158.675781 93.277344 158.277344 93.84375 C 157.449219 93.636719 156.609375 93.53125 155.761719 93.53125 C 155.292969 93.53125 154.84375 93.613281 154.390625 93.671875 Z M 164.351562 89.078125 C 157.667969 66.355469 136.410156 50.203125 112.429688 50.203125 C 88.453125 50.203125 67.191406 66.355469 60.511719 89.078125 C 58.957031 88.460938 57.285156 88.117188 55.558594 88.117188 C 55.421875 88.117188 55.285156 88.136719 55.148438 88.140625 C 62.289062 62.792969 85.726562 44.785156 112.429688 44.785156 C 139.136719 44.785156 162.570312 62.792969 169.714844 88.140625 C 169.578125 88.136719 169.441406 88.117188 169.304688 88.117188 C 167.578125 88.117188 165.90625 88.460938 164.351562 89.078125 Z M 48.039062 106.871094 C 47.300781 106.917969 46.613281 107.265625 46.136719 107.828125 C 45.089844 109.070312 43.589844 109.78125 42.015625 109.78125 C 39.03125 109.78125 36.601562 107.351562 36.601562 104.367188 C 36.601562 100.558594 40.722656 97.636719 44.480469 99.582031 C 45.140625 99.921875 45.90625 99.976562 46.609375 99.734375 C 47.308594 99.492188 47.878906 98.972656 48.1875 98.300781 C 49.507812 95.402344 52.402344 93.53125 55.558594 93.53125 C 58.714844 93.53125 61.609375 95.402344 62.929688 98.300781 C 63.238281 98.972656 63.808594 99.492188 64.507812 99.734375 C 65.207031 99.972656 65.976562 99.917969 66.636719 99.582031 C 70.398438 97.636719 74.515625 100.558594 74.515625 104.367188 C 74.515625 107.351562 72.085938 109.78125 69.097656 109.78125 C 67.527344 109.78125 66.027344 109.070312 64.980469 107.828125 C 64.503906 107.261719 63.816406 106.914062 63.078125 106.871094 C 63.019531 106.867188 62.964844 106.867188 62.910156 106.867188 C 62.226562 106.867188 61.566406 107.121094 61.0625 107.589844 C 58.015625 110.417969 53.09375 110.417969 50.046875 107.589844 C 49.503906 107.085938 48.765625 106.828125 48.039062 106.871094 Z M 115.960938 190.304688 L 112.429688 190.980469 L 108.902344 190.304688 C 79.5625 184.71875 58.265625 158.984375 58.265625 129.121094 L 58.265625 114.847656 C 59.84375 114.535156 61.375 113.976562 62.746094 113.109375 C 64.582031 114.457031 66.796875 115.199219 69.097656 115.199219 C 74.132812 115.199219 78.335938 111.734375 79.546875 107.074219 L 145.3125 107.074219 C 146.523438 111.734375 150.726562 115.199219 155.761719 115.199219 C 158.066406 115.199219 160.28125 114.457031 162.117188 113.109375 C 163.488281 113.976562 165.015625 114.535156 166.59375 114.847656 L 166.59375 129.121094 C 166.59375 158.984375 145.300781 184.71875 115.960938 190.304688 Z M 182.84375 109.78125 C 181.273438 109.78125 179.769531 109.070312 178.726562 107.828125 C 178.25 107.261719 177.5625 106.914062 176.820312 106.871094 C 176.765625 106.867188 176.710938 106.867188 176.652344 106.867188 C 175.972656 106.867188 175.3125 107.121094 174.808594 107.589844 C 171.761719 110.417969 166.839844 110.417969 163.792969 107.589844 C 163.25 107.085938 162.519531 106.832031 161.78125 106.871094 C 161.042969 106.917969 160.355469 107.265625 159.878906 107.828125 C 158.835938 109.070312 157.332031 109.78125 155.761719 109.78125 C 152.777344 109.78125 150.347656 107.351562 150.347656 104.367188 C 150.347656 100.558594 154.46875 97.636719 158.222656 99.582031 C 158.886719 99.921875 159.65625 99.976562 160.351562 99.734375 C 161.054688 99.492188 161.625 98.972656 161.933594 98.300781 C 163.253906 95.402344 166.144531 93.53125 169.304688 93.53125 C 172.460938 93.53125 175.355469 95.402344 176.675781 98.300781 C 176.984375 98.972656 177.554688 99.492188 178.253906 99.734375 C 178.957031 99.972656 179.722656 99.917969 180.382812 99.582031 C 184.140625 97.636719 188.261719 100.558594 188.261719 104.367188 C 188.261719 107.351562 185.832031 109.78125 182.84375 109.78125 Z M 182.84375 109.78125 " fill-opacity="1" fill-rule="nonzero"/></g><path fill="#292233" d="M 102.117188 129.535156 C 99.046875 132.609375 94.964844 134.296875 90.628906 134.296875 C 86.292969 134.296875 82.210938 132.609375 79.140625 129.535156 L 75.308594 133.363281 C 79.40625 137.460938 84.84375 139.714844 90.628906 139.714844 C 96.414062 139.714844 101.855469 137.460938 105.949219 133.363281 Z M 102.117188 129.535156 " fill-opacity="1" fill-rule="nonzero"/><path fill="#292233" d="M 134.230469 134.296875 C 129.894531 134.296875 125.816406 132.609375 122.742188 129.535156 L 118.914062 133.363281 C 123.007812 137.460938 128.449219 139.714844 134.230469 139.714844 C 140.015625 139.714844 145.457031 137.460938 149.550781 133.363281 L 145.722656 129.535156 C 142.648438 132.609375 138.566406 134.296875 134.230469 134.296875 Z M 134.230469 134.296875 " fill-opacity="1" fill-rule="nonzero"/><path fill="#292233" d="M 112.296875 166.796875 C 107.957031 166.796875 103.878906 165.105469 100.804688 162.03125 L 96.976562 165.863281 C 101.074219 169.960938 106.511719 172.210938 112.296875 172.210938 C 118.082031 172.210938 123.519531 169.960938 127.613281 165.863281 L 123.785156 162.03125 C 120.714844 165.105469 116.632812 166.796875 112.296875 166.796875 Z M 112.296875 166.796875 " fill-opacity="1" fill-rule="nonzero"/></svg>